<?xml version="1.0" encoding="UTF-8" standalone="no"?>
<!-- Svg Vector Icons : http://www.onlinewebfonts.com/icon -->

<svg
   xmlns:osb="http://www.openswatchbook.org/uri/2009/osb"
   xmlns:dc="http://purl.org/dc/elements/1.1/"
   xmlns:cc="http://creativecommons.org/ns#"
   xmlns:rdf="http://www.w3.org/1999/02/22-rdf-syntax-ns#"
   xmlns:svg="http://www.w3.org/2000/svg"
   xmlns="http://www.w3.org/2000/svg"
   xmlns:sodipodi="http://sodipodi.sourceforge.net/DTD/sodipodi-0.dtd"
   xmlns:inkscape="http://www.inkscape.org/namespaces/inkscape"
   version="1.1"
   x="0px"
   y="0px"
   viewBox="0 0 1000 1000"
   enable-background="new 0 0 1000 1000"
   xml:space="preserve"
   id="svg14"
   sodipodi:docname="pen.svg"
   inkscape:version="0.92.4 5da689c313, 2019-01-14"><defs
   id="defs18"><linearGradient
     id="linearGradient830"
     osb:paint="solid"><stop
       style="stop-color:#000000;stop-opacity:1;"
       offset="0"
       id="stop828" /></linearGradient></defs><sodipodi:namedview
   pagecolor="#ffffff"
   bordercolor="#666666"
   borderopacity="1"
   objecttolerance="10"
   gridtolerance="10"
   guidetolerance="10"
   inkscape:pageopacity="0"
   inkscape:pageshadow="2"
   inkscape:window-width="1090"
   inkscape:window-height="650"
   id="namedview16"
   showgrid="false"
   inkscape:zoom="0.236"
   inkscape:cx="-415.25424"
   inkscape:cy="500"
   inkscape:window-x="1874"
   inkscape:window-y="252"
   inkscape:window-maximized="0"
   inkscape:current-layer="svg14"
   inkscape:pagecheckerboard="true" />
<metadata
   id="metadata2"> Svg Vector Icons : http://www.onlinewebfonts.com/icon <rdf:RDF><cc:Work
     rdf:about=""><dc:format>image/svg+xml</dc:format><dc:type
       rdf:resource="http://purl.org/dc/dcmitype/StillImage" /><dc:title /></cc:Work></rdf:RDF></metadata>
<g
   id="g12"
   style="fill-opacity:1;fill-rule:evenodd;fill:#627183"><g
     transform="translate(0.000000,511.000000) scale(0.100000,-0.100000)"
     id="g10"
     style="fill-opacity:1;fill-rule:evenodd;fill:#627183"><path
       d="M8492,4995.5c-264.3-39.3-598.4-200.9-757.8-369.1l-63.3-67.7l888.9-888.8l891-888.9l83,93.9c190,216.2,318.8,500.1,356,775.3C9994.5,4432,9286.9,5111.2,8492,4995.5z"
       id="path4"
       style="fill-opacity:1;fill-rule:evenodd;fill:#627183" /><path
       d="M4473.6,1365.8L1717.5-1390.2l891-891l888.9-888.9L6255.6-411.9l2756.1,2756.1l-891,891l-888.9,888.9L4473.6,1365.8z"
       id="path6"
       style="fill-opacity:1;fill-rule:evenodd;fill:#627183" /><path
       d="M1164.9-1942.8c-104.8-104.8-113.6-126.7-598.4-1404.2C38-4742.5,44.6-4720.7,171.3-4781.8c56.8-26.2,150.7,6.6,1364.9,467.3c1275.4,480.5,1308.2,495.8,1408.6,596.2l104.8,100.4l-891,891l-888.9,888.9L1164.9-1942.8z"
       id="path8"
       style="fill-opacity:1;fill-rule:evenodd;fill:#627183" /></g></g>
</svg>