STARTFONT 2.1
FONT -font-Medium-R-Normal--12-100-75-75-C-100-ISO10646-1
SIZE 10 75 75
FONTBOUNDINGBOX 7 12 0 -2
STARTPROPERTIES 17
POINT_SIZE 100
PIXEL_SIZE 10
RESOLUTION_X 75
RESOLUTION_Y 75
AVERAGE_WIDTH 100
SPACING "C"
CHARSET_ENCODING "1"
CHARSET_REGISTRY "ISO10646"
FAMILY_NAME "font"
WEIGHT_NAME "medium"
_GBDFED_INFO "Edited with gbdfed 1.6."
WEIGHT 12
X_HEIGHT 0
QUAD_WIDTH 6
DEFAULT_CHAR 0
FONT_DESCENT 2
FONT_ASCENT 8
ENDPROPERTIES
CHARS 98
STARTCHAR <control>
ENCODING 0
SWIDTH 576 0
DWIDTH 6 0
BBX 7 12 0 -2
BITMAP
00
00
00
00
00
00
00
00
00
00
00
00
ENDCHAR
STARTCHAR SPACE
ENCODING 32
SWIDTH 576 0
DWIDTH 6 0
BBX 7 12 0 -2
BITMAP
00
00
00
00
00
00
00
00
00
00
00
00
ENDCHAR
STARTCHAR EXCLAMATION MARK
ENCODING 33
SWIDTH 576 0
DWIDTH 6 0
BBX 7 12 0 -2
BITMAP
00
20
20
20
20
20
00
00
20
20
00
00
ENDCHAR
STARTCHAR QUOTATION MARK
ENCODING 34
SWIDTH 576 0
DWIDTH 6 0
BBX 7 12 0 -2
BITMAP
00
00
48
48
00
00
00
00
00
00
00
00
ENDCHAR
STARTCHAR NUMBER SIGN
ENCODING 35
SWIDTH 576 0
DWIDTH 6 0
BBX 7 12 0 -2
BITMAP
00
00
48
48
FC
48
48
FC
48
48
00
00
ENDCHAR
STARTCHAR DOLLAR SIGN
ENCODING 36
SWIDTH 576 0
DWIDTH 6 0
BBX 7 12 0 -2
BITMAP
00
20
78
A0
A0
70
28
28
28
F0
20
00
ENDCHAR
STARTCHAR PERCENT SIGN
ENCODING 37
SWIDTH 576 0
DWIDTH 6 0
BBX 7 12 0 -2
BITMAP
00
00
C8
C8
10
20
20
40
98
98
00
00
ENDCHAR
STARTCHAR AMPERSAND
ENCODING 38
SWIDTH 576 0
DWIDTH 6 0
BBX 7 12 0 -2
BITMAP
00
00
60
90
90
60
A8
90
88
74
00
00
ENDCHAR
STARTCHAR APOSTROPHE
ENCODING 39
SWIDTH 576 0
DWIDTH 6 0
BBX 7 12 0 -2
BITMAP
00
00
20
20
20
00
00
00
00
00
00
00
ENDCHAR
STARTCHAR LEFT PARENTHESIS
ENCODING 40
SWIDTH 576 0
DWIDTH 6 0
BBX 7 12 0 -2
BITMAP
00
00
18
20
40
40
40
40
40
20
18
00
ENDCHAR
STARTCHAR RIGHT PARENTHESIS
ENCODING 41
SWIDTH 576 0
DWIDTH 6 0
BBX 7 12 0 -2
BITMAP
00
00
60
10
08
08
08
08
08
10
60
00
ENDCHAR
STARTCHAR ASTERISK
ENCODING 42
SWIDTH 576 0
DWIDTH 6 0
BBX 7 12 0 -2
BITMAP
00
50
20
F8
20
50
00
00
00
00
00
00
ENDCHAR
STARTCHAR PLUS SIGN
ENCODING 43
SWIDTH 576 0
DWIDTH 6 0
BBX 7 12 0 -2
BITMAP
00
00
00
00
20
20
F8
20
20
00
00
00
ENDCHAR
STARTCHAR COMMA
ENCODING 44
SWIDTH 576 0
DWIDTH 6 0
BBX 7 12 0 -2
BITMAP
00
00
00
00
00
00
00
00
20
20
40
00
ENDCHAR
STARTCHAR HYPHEN-MINUS
ENCODING 45
SWIDTH 576 0
DWIDTH 6 0
BBX 7 12 0 -2
BITMAP
00
00
00
00
00
00
F8
00
00
00
00
00
ENDCHAR
STARTCHAR FULL STOP
ENCODING 46
SWIDTH 576 0
DWIDTH 6 0
BBX 7 12 0 -2
BITMAP
00
00
00
00
00
00
00
00
00
20
00
00
ENDCHAR
STARTCHAR SOLIDUS
ENCODING 47
SWIDTH 576 0
DWIDTH 6 0
BBX 7 12 0 -2
BITMAP
00
00
08
08
10
10
20
20
40
40
00
00
ENDCHAR
STARTCHAR DIGIT ZERO
ENCODING 48
SWIDTH 576 0
DWIDTH 6 0
BBX 7 12 0 -2
BITMAP
00
00
70
88
98
A8
A8
C8
88
70
00
00
ENDCHAR
STARTCHAR DIGIT ONE
ENCODING 49
SWIDTH 576 0
DWIDTH 6 0
BBX 7 12 0 -2
BITMAP
00
00
20
60
A0
20
20
20
20
F8
00
00
ENDCHAR
STARTCHAR DIGIT TWO
ENCODING 50
SWIDTH 576 0
DWIDTH 6 0
BBX 7 12 0 -2
BITMAP
00
00
70
88
08
08
10
20
40
F8
00
00
ENDCHAR
STARTCHAR DIGIT THREE
ENCODING 51
SWIDTH 576 0
DWIDTH 6 0
BBX 7 12 0 -2
BITMAP
00
00
F0
08
08
70
08
08
08
F0
00
00
ENDCHAR
STARTCHAR DIGIT FOUR
ENCODING 52
SWIDTH 576 0
DWIDTH 6 0
BBX 7 12 0 -2
BITMAP
00
00
80
80
90
90
90
F8
10
10
00
00
ENDCHAR
STARTCHAR DIGIT FIVE
ENCODING 53
SWIDTH 576 0
DWIDTH 6 0
BBX 7 12 0 -2
BITMAP
00
00
F8
80
80
F0
08
08
88
70
00
00
ENDCHAR
STARTCHAR DIGIT SIX
ENCODING 54
SWIDTH 576 0
DWIDTH 6 0
BBX 7 12 0 -2
BITMAP
00
00
70
80
80
F0
88
88
88
70
00
00
ENDCHAR
STARTCHAR DIGIT SEVEN
ENCODING 55
SWIDTH 576 0
DWIDTH 6 0
BBX 7 12 0 -2
BITMAP
00
00
F8
08
08
10
10
20
40
40
00
00
ENDCHAR
STARTCHAR DIGIT EIGHT
ENCODING 56
SWIDTH 576 0
DWIDTH 6 0
BBX 7 12 0 -2
BITMAP
00
00
70
88
88
70
88
88
88
70
00
00
ENDCHAR
STARTCHAR DIGIT NINE
ENCODING 57
SWIDTH 576 0
DWIDTH 6 0
BBX 7 12 0 -2
BITMAP
00
00
70
88
88
88
78
08
08
70
00
00
ENDCHAR
STARTCHAR COLON
ENCODING 58
SWIDTH 576 0
DWIDTH 6 0
BBX 7 12 0 -2
BITMAP
00
00
00
00
20
20
00
00
20
20
00
00
ENDCHAR
STARTCHAR SEMICOLON
ENCODING 59
SWIDTH 576 0
DWIDTH 6 0
BBX 7 12 0 -2
BITMAP
00
00
00
00
20
20
00
00
20
20
40
00
ENDCHAR
STARTCHAR LESS-THAN SIGN
ENCODING 60
SWIDTH 576 0
DWIDTH 6 0
BBX 7 12 0 -2
BITMAP
00
00
00
00
18
60
80
60
18
00
00
00
ENDCHAR
STARTCHAR EQUALS SIGN
ENCODING 61
SWIDTH 576 0
DWIDTH 6 0
BBX 7 12 0 -2
BITMAP
00
00
00
00
78
00
00
78
00
00
00
00
ENDCHAR
STARTCHAR GREATER-THAN SIGN
ENCODING 62
SWIDTH 576 0
DWIDTH 6 0
BBX 7 12 0 -2
BITMAP
00
00
00
00
C0
30
08
30
C0
00
00
00
ENDCHAR
STARTCHAR QUESTION MARK
ENCODING 63
SWIDTH 576 0
DWIDTH 6 0
BBX 7 12 0 -2
BITMAP
00
00
70
88
08
10
20
20
00
20
00
00
ENDCHAR
STARTCHAR COMMERCIAL AT
ENCODING 64
SWIDTH 576 0
DWIDTH 6 0
BBX 7 12 0 -2
BITMAP
00
00
38
44
9C
A4
A4
BC
80
78
00
00
ENDCHAR
STARTCHAR LATIN CAPITAL LETTER A
ENCODING 65
SWIDTH 576 0
DWIDTH 6 0
BBX 7 12 0 -2
BITMAP
00
00
70
88
88
88
F8
88
88
88
00
00
ENDCHAR
STARTCHAR LATIN CAPITAL LETTER B
ENCODING 66
SWIDTH 576 0
DWIDTH 6 0
BBX 7 12 0 -2
BITMAP
00
00
F0
88
88
F0
88
88
88
F0
00
00
ENDCHAR
STARTCHAR LATIN CAPITAL LETTER C
ENCODING 67
SWIDTH 576 0
DWIDTH 6 0
BBX 7 12 0 -2
BITMAP
00
00
78
80
80
80
80
80
80
78
00
00
ENDCHAR
STARTCHAR LATIN CAPITAL LETTER D
ENCODING 68
SWIDTH 576 0
DWIDTH 6 0
BBX 7 12 0 -2
BITMAP
00
00
F0
88
88
88
88
88
88
F0
00
00
ENDCHAR
STARTCHAR LATIN CAPITAL LETTER E
ENCODING 69
SWIDTH 576 0
DWIDTH 6 0
BBX 7 12 0 -2
BITMAP
00
00
F8
80
80
E0
80
80
80
F8
00
00
ENDCHAR
STARTCHAR LATIN CAPITAL LETTER F
ENCODING 70
SWIDTH 576 0
DWIDTH 6 0
BBX 7 12 0 -2
BITMAP
00
00
F8
80
80
E0
80
80
80
80
00
00
ENDCHAR
STARTCHAR LATIN CAPITAL LETTER G
ENCODING 71
SWIDTH 576 0
DWIDTH 6 0
BBX 7 12 0 -2
BITMAP
00
00
78
80
80
80
98
88
88
78
00
00
ENDCHAR
STARTCHAR LATIN CAPITAL LETTER H
ENCODING 72
SWIDTH 576 0
DWIDTH 6 0
BBX 7 12 0 -2
BITMAP
00
00
88
88
88
F8
88
88
88
88
00
00
ENDCHAR
STARTCHAR LATIN CAPITAL LETTER I
ENCODING 73
SWIDTH 576 0
DWIDTH 6 0
BBX 7 12 0 -2
BITMAP
00
00
F8
20
20
20
20
20
20
F8
00
00
ENDCHAR
STARTCHAR LATIN CAPITAL LETTER J
ENCODING 74
SWIDTH 576 0
DWIDTH 6 0
BBX 7 12 0 -2
BITMAP
00
00
38
08
08
08
08
08
88
70
00
00
ENDCHAR
STARTCHAR LATIN CAPITAL LETTER K
ENCODING 75
SWIDTH 576 0
DWIDTH 6 0
BBX 7 12 0 -2
BITMAP
00
00
88
90
A0
C0
A0
90
88
88
00
00
ENDCHAR
STARTCHAR LATIN CAPITAL LETTER L
ENCODING 76
SWIDTH 576 0
DWIDTH 6 0
BBX 7 12 0 -2
BITMAP
00
00
80
80
80
80
80
80
80
F8
00
00
ENDCHAR
STARTCHAR LATIN CAPITAL LETTER M
ENCODING 77
SWIDTH 576 0
DWIDTH 6 0
BBX 7 12 0 -2
BITMAP
00
00
88
D8
D8
A8
A8
88
88
88
00
00
ENDCHAR
STARTCHAR LATIN CAPITAL LETTER N
ENCODING 78
SWIDTH 576 0
DWIDTH 6 0
BBX 7 12 0 -2
BITMAP
00
00
88
C8
C8
A8
98
98
88
88
00
00
ENDCHAR
STARTCHAR LATIN CAPITAL LETTER O
ENCODING 79
SWIDTH 576 0
DWIDTH 6 0
BBX 7 12 0 -2
BITMAP
00
00
70
88
88
88
88
88
88
70
00
00
ENDCHAR
STARTCHAR LATIN CAPITAL LETTER P
ENCODING 80
SWIDTH 576 0
DWIDTH 6 0
BBX 7 12 0 -2
BITMAP
00
00
F0
88
88
88
F0
80
80
80
00
00
ENDCHAR
STARTCHAR LATIN CAPITAL LETTER Q
ENCODING 81
SWIDTH 576 0
DWIDTH 6 0
BBX 7 12 0 -2
BITMAP
00
00
70
88
88
88
88
88
88
78
04
00
ENDCHAR
STARTCHAR LATIN CAPITAL LETTER R
ENCODING 82
SWIDTH 576 0
DWIDTH 6 0
BBX 7 12 0 -2
BITMAP
00
00
F0
88
88
88
F0
88
88
88
00
00
ENDCHAR
STARTCHAR LATIN CAPITAL LETTER S
ENCODING 83
SWIDTH 576 0
DWIDTH 6 0
BBX 7 12 0 -2
BITMAP
00
00
78
80
80
70
08
08
08
F0
00
00
ENDCHAR
STARTCHAR LATIN CAPITAL LETTER T
ENCODING 84
SWIDTH 576 0
DWIDTH 6 0
BBX 7 12 0 -2
BITMAP
00
00
F8
20
20
20
20
20
20
20
00
00
ENDCHAR
STARTCHAR LATIN CAPITAL LETTER U
ENCODING 85
SWIDTH 576 0
DWIDTH 6 0
BBX 7 12 0 -2
BITMAP
00
00
88
88
88
88
88
88
88
70
00
00
ENDCHAR
STARTCHAR LATIN CAPITAL LETTER V
ENCODING 86
SWIDTH 576 0
DWIDTH 6 0
BBX 7 12 0 -2
BITMAP
00
00
88
88
88
50
50
50
20
20
00
00
ENDCHAR
STARTCHAR LATIN CAPITAL LETTER W
ENCODING 87
SWIDTH 576 0
DWIDTH 6 0
BBX 7 12 0 -2
BITMAP
00
00
88
88
88
88
88
A8
D8
88
00
00
ENDCHAR
STARTCHAR LATIN CAPITAL LETTER X
ENCODING 88
SWIDTH 576 0
DWIDTH 6 0
BBX 7 12 0 -2
BITMAP
00
00
88
88
50
20
50
50
88
88
00
00
ENDCHAR
STARTCHAR LATIN CAPITAL LETTER Y
ENCODING 89
SWIDTH 576 0
DWIDTH 6 0
BBX 7 12 0 -2
BITMAP
00
00
88
88
88
50
20
20
20
20
00
00
ENDCHAR
STARTCHAR LATIN CAPITAL LETTER Z
ENCODING 90
SWIDTH 576 0
DWIDTH 6 0
BBX 7 12 0 -2
BITMAP
00
00
F8
08
10
20
20
40
80
F8
00
00
ENDCHAR
STARTCHAR LEFT SQUARE BRACKET
ENCODING 91
SWIDTH 576 0
DWIDTH 6 0
BBX 7 12 0 -2
BITMAP
00
00
70
40
40
40
40
40
40
40
70
00
ENDCHAR
STARTCHAR REVERSE SOLIDUS
ENCODING 92
SWIDTH 576 0
DWIDTH 6 0
BBX 7 12 0 -2
BITMAP
00
00
40
40
20
20
10
10
08
08
00
00
ENDCHAR
STARTCHAR RIGHT SQUARE BRACKET
ENCODING 93
SWIDTH 576 0
DWIDTH 6 0
BBX 7 12 0 -2
BITMAP
00
00
70
10
10
10
10
10
10
10
70
00
ENDCHAR
STARTCHAR CIRCUMFLEX ACCENT
ENCODING 94
SWIDTH 576 0
DWIDTH 6 0
BBX 7 12 0 -2
BITMAP
00
00
20
50
88
00
00
00
00
00
00
00
ENDCHAR
STARTCHAR LOW LINE
ENCODING 95
SWIDTH 576 0
DWIDTH 6 0
BBX 7 12 0 -2
BITMAP
00
00
00
00
00
00
00
00
00
F8
00
00
ENDCHAR
STARTCHAR GRAVE ACCENT
ENCODING 96
SWIDTH 576 0
DWIDTH 6 0
BBX 7 12 0 -2
BITMAP
00
80
80
40
00
00
00
00
00
00
00
00
ENDCHAR
STARTCHAR LATIN SMALL LETTER A
ENCODING 97
SWIDTH 576 0
DWIDTH 6 0
BBX 7 12 0 -2
BITMAP
00
00
00
00
78
88
88
88
88
78
00
00
ENDCHAR
STARTCHAR LATIN SMALL LETTER B
ENCODING 98
SWIDTH 576 0
DWIDTH 6 0
BBX 7 12 0 -2
BITMAP
00
00
80
80
F0
88
88
88
88
F0
00
00
ENDCHAR
STARTCHAR LATIN SMALL LETTER C
ENCODING 99
SWIDTH 576 0
DWIDTH 6 0
BBX 7 12 0 -2
BITMAP
00
00
00
00
78
80
80
80
80
78
00
00
ENDCHAR
STARTCHAR LATIN SMALL LETTER D
ENCODING 100
SWIDTH 576 0
DWIDTH 6 0
BBX 7 12 0 -2
BITMAP
00
00
08
08
78
88
88
88
88
78
00
00
ENDCHAR
STARTCHAR LATIN SMALL LETTER E
ENCODING 101
SWIDTH 576 0
DWIDTH 6 0
BBX 7 12 0 -2
BITMAP
00
00
00
00
70
88
F8
80
80
78
00
00
ENDCHAR
STARTCHAR LATIN SMALL LETTER F
ENCODING 102
SWIDTH 576 0
DWIDTH 6 0
BBX 7 12 0 -2
BITMAP
00
00
30
40
F0
40
40
40
40
40
00
00
ENDCHAR
STARTCHAR LATIN SMALL LETTER G
ENCODING 103
SWIDTH 576 0
DWIDTH 6 0
BBX 7 12 0 -2
BITMAP
00
00
00
00
78
88
88
78
08
08
F0
00
ENDCHAR
STARTCHAR LATIN SMALL LETTER H
ENCODING 104
SWIDTH 576 0
DWIDTH 6 0
BBX 7 12 0 -2
BITMAP
00
00
80
80
F0
88
88
88
88
88
00
00
ENDCHAR
STARTCHAR LATIN SMALL LETTER I
ENCODING 105
SWIDTH 576 0
DWIDTH 6 0
BBX 7 12 0 -2
BITMAP
00
00
20
00
60
20
20
20
20
70
00
00
ENDCHAR
STARTCHAR LATIN SMALL LETTER J
ENCODING 106
SWIDTH 576 0
DWIDTH 6 0
BBX 7 12 0 -2
BITMAP
00
00
20
00
60
20
20
20
20
C0
00
00
ENDCHAR
STARTCHAR LATIN SMALL LETTER K
ENCODING 107
SWIDTH 576 0
DWIDTH 6 0
BBX 7 12 0 -2
BITMAP
00
00
80
80
90
A0
E0
90
90
88
00
00
ENDCHAR
STARTCHAR LATIN SMALL LETTER L
ENCODING 108
SWIDTH 576 0
DWIDTH 6 0
BBX 7 12 0 -2
BITMAP
00
00
60
20
20
20
20
20
20
F8
00
00
ENDCHAR
STARTCHAR LATIN SMALL LETTER M
ENCODING 109
SWIDTH 576 0
DWIDTH 6 0
BBX 7 12 0 -2
BITMAP
00
00
00
00
88
D8
A8
A8
88
88
00
00
ENDCHAR
STARTCHAR LATIN SMALL LETTER N
ENCODING 110
SWIDTH 576 0
DWIDTH 6 0
BBX 7 12 0 -2
BITMAP
00
00
00
00
B8
C8
88
88
88
88
00
00
ENDCHAR
STARTCHAR LATIN SMALL LETTER O
ENCODING 111
SWIDTH 576 0
DWIDTH 6 0
BBX 7 12 0 -2
BITMAP
00
00
00
00
70
88
88
88
88
70
00
00
ENDCHAR
STARTCHAR LATIN SMALL LETTER P
ENCODING 112
SWIDTH 576 0
DWIDTH 6 0
BBX 7 12 0 -2
BITMAP
00
00
00
00
F0
88
88
88
F0
80
80
00
ENDCHAR
STARTCHAR LATIN SMALL LETTER Q
ENCODING 113
SWIDTH 576 0
DWIDTH 6 0
BBX 7 12 0 -2
BITMAP
00
00
00
00
78
88
88
88
78
08
08
00
ENDCHAR
STARTCHAR LATIN SMALL LETTER R
ENCODING 114
SWIDTH 576 0
DWIDTH 6 0
BBX 7 12 0 -2
BITMAP
00
00
00
00
B0
C8
80
80
80
80
00
00
ENDCHAR
STARTCHAR LATIN SMALL LETTER S
ENCODING 115
SWIDTH 576 0
DWIDTH 6 0
BBX 7 12 0 -2
BITMAP
00
00
00
00
78
80
70
08
08
F0
00
00
ENDCHAR
STARTCHAR LATIN SMALL LETTER T
ENCODING 116
SWIDTH 576 0
DWIDTH 6 0
BBX 7 12 0 -2
BITMAP
00
00
20
20
70
20
20
20
20
18
00
00
ENDCHAR
STARTCHAR LATIN SMALL LETTER U
ENCODING 117
SWIDTH 576 0
DWIDTH 6 0
BBX 7 12 0 -2
BITMAP
00
00
00
00
88
88
88
88
88
78
00
00
ENDCHAR
STARTCHAR LATIN SMALL LETTER V
ENCODING 118
SWIDTH 576 0
DWIDTH 6 0
BBX 7 12 0 -2
BITMAP
00
00
00
00
88
88
88
50
50
20
00
00
ENDCHAR
STARTCHAR LATIN SMALL LETTER W
ENCODING 119
SWIDTH 576 0
DWIDTH 6 0
BBX 7 12 0 -2
BITMAP
00
00
00
00
88
88
88
A8
A8
50
00
00
ENDCHAR
STARTCHAR LATIN SMALL LETTER X
ENCODING 120
SWIDTH 576 0
DWIDTH 6 0
BBX 7 12 0 -2
BITMAP
00
00
00
00
88
50
20
20
50
88
00
00
ENDCHAR
STARTCHAR LATIN SMALL LETTER Y
ENCODING 121
SWIDTH 576 0
DWIDTH 6 0
BBX 7 12 0 -2
BITMAP
00
00
00
00
88
88
88
78
08
08
F0
00
ENDCHAR
STARTCHAR LATIN SMALL LETTER Z
ENCODING 122
SWIDTH 576 0
DWIDTH 6 0
BBX 7 12 0 -2
BITMAP
00
00
00
00
F8
10
20
20
40
F8
00
00
ENDCHAR
STARTCHAR LEFT CURLY BRACKET
ENCODING 123
SWIDTH 576 0
DWIDTH 6 0
BBX 7 12 0 -2
BITMAP
00
00
18
20
20
20
40
20
20
20
18
00
ENDCHAR
STARTCHAR VERTICAL LINE
ENCODING 124
SWIDTH 576 0
DWIDTH 6 0
BBX 7 12 0 -2
BITMAP
00
00
20
20
20
20
20
20
20
20
00
00
ENDCHAR
STARTCHAR RIGHT CURLY BRACKET
ENCODING 125
SWIDTH 576 0
DWIDTH 6 0
BBX 7 12 0 -2
BITMAP
00
00
60
10
10
10
08
10
10
10
60
00
ENDCHAR
STARTCHAR TILDE
ENCODING 126
SWIDTH 576 0
DWIDTH 6 0
BBX 7 12 0 -2
BITMAP
00
00
00
00
00
48
A8
90
00
00
00
00
ENDCHAR
STARTCHAR char9825
ENCODING 9825
SWIDTH 576 0
DWIDTH 6 0
BBX 7 12 0 -2
BITMAP
00
00
00
00
48
B4
84
84
48
30
00
00
ENDCHAR
STARTCHAR char9829
ENCODING 9829
SWIDTH 576 0
DWIDTH 6 0
BBX 7 12 0 -2
BITMAP
00
00
00
00
48
FC
FC
FC
78
30
00
00
ENDCHAR
ENDFONT
