/* XPM */
static char * bar_xpm[] = {
"20 20 9 1",
" 	c None",
".	c #696969",
"+	c #181A21",
"@	c #191B21",
"#	c #191A21",
"$	c #1D1E21",
"%	c #1C1D21",
"&	c #1A1C21",
"*	c #1A1B21",
"....................",
"++++++++++++++++++++",
"++++++++++++++++++++",
"++++++++++++++++++++",
"++++++++++++++++++++",
"++++++++++++++++++++",
"++++++++++++++++++++",
"++++++++++++++++++++",
"@@#+++++++++++++++++",
"$%&*@+++++++++++++++",
"*#++++++++++++++++++",
"++++++++++++++++++++",
"++++++++++++++++++++",
"++++++++++++++++++++",
"++++++++++++++++++++",
"++++++++++++++++++++",
"++++++++++++++++++++",
"++++++++++++++++++++",
"++++++++++++++++++++",
"++++++++++++++++++++"};
