/* XPM */
static char * close_inactive_xpm[] = {
"16 16 15 1",
" 	c None",
".	c #1D2029",
"+	c #57595E",
"@	c #585A5F",
"#	c #23262F",
"$	c #24272F",
"%	c #595A60",
"&	c #55575D",
"*	c #67696D",
"=	c #5A5C62",
"-	c #57595F",
";	c #5A5C61",
">	c #5C5D63",
",	c #242730",
"'	c #56575D",
"................",
"................",
"................",
"................",
"....+@#..$%&....",
"....@*=##=*-....",
"....#=*==*=#....",
".....#;**>,.....",
".....#;**>,.....",
"....#=*==*=#....",
"....%*=##=*@....",
"....&@$..#@'....",
"................",
"................",
"................",
"................"};
