/* XPM */
static char * iconify_xpm[] = {
"16 16 3 1",
" 	c None",
".	c #1D2029",
"+	c #898B8F",
"................",
"................",
"................",
"................",
"................",
"................",
"................",
"................",
"................",
"................",
"....++++++++....",
"....++++++++....",
"................",
"................",
"................",
"................"};
