/* XPM */
static char * window_active_xpm[] = {
"20 20 3 1",
" 	c None",
".	c #181A21",
"+	c #6992C5",
"....................",
"....................",
"....................",
"....................",
"....................",
"....................",
"....................",
"....................",
"....................",
"....................",
"....................",
"....................",
"....................",
"....................",
"....................",
"....................",
"....................",
"....................",
"++++++++++++++++++++",
"++++++++++++++++++++"};
