/* XPM */
static char * window_inactive_xpm[] = {
"20 20 4 1",
" 	c None",
".	c #181A21",
"+	c #696969",
"@	c #686868",
"....................",
"....................",
"....................",
"....................",
"....................",
"....................",
"....................",
"....................",
"....................",
"....................",
"....................",
"....................",
"....................",
"....................",
"....................",
"....................",
"....................",
"....................",
"++++++++++++++++++++",
"+++++++++++++++++@@@"};
