#define iconify_hover_width 10
#define iconify_hover_height 10
static unsigned char iconify_hover_bits[] = {
   0x7c, 0x00, 0xfe, 0x00, 0xff, 0x01, 0xff, 0x01, 0x83, 0x01, 0xff, 0x01,
   0xff, 0x01, 0xfe, 0x00, 0x7c, 0x00, 0x00, 0x00 };
