#define max_hover_width 10
#define max_hover_height 10
static unsigned char max_hover_bits[] = {
   0x7c, 0x00, 0xfe, 0x00, 0x8f, 0x01, 0x9f, 0x01, 0xbb, 0x01, 0xf3, 0x01,
   0xe3, 0x01, 0xfe, 0x00, 0x7c, 0x00, 0x00, 0x00 };
