<?xml version="1.0" encoding="UTF-8" standalone="no"?>
<svg
   xmlns:osb="http://www.openswatchbook.org/uri/2009/osb"
   xmlns:dc="http://purl.org/dc/elements/1.1/"
   xmlns:cc="http://creativecommons.org/ns#"
   xmlns:rdf="http://www.w3.org/1999/02/22-rdf-syntax-ns#"
   xmlns:svg="http://www.w3.org/2000/svg"
   xmlns="http://www.w3.org/2000/svg"
   xmlns:sodipodi="http://sodipodi.sourceforge.net/DTD/sodipodi-0.dtd"
   xmlns:inkscape="http://www.inkscape.org/namespaces/inkscape"
   id="svg2"
   width="128"
   height="128"
   version="1"
   sodipodi:docname="actionbutton.svg"
   inkscape:version="0.92.2 2405546, 2018-03-11">
  <metadata
     id="metadata41">
    <rdf:RDF>
      <cc:Work
         rdf:about="">
        <dc:format>image/svg+xml</dc:format>
        <dc:type
           rdf:resource="http://purl.org/dc/dcmitype/StillImage" />
      </cc:Work>
    </rdf:RDF>
  </metadata>
  <sodipodi:namedview
     pagecolor="#ffffff"
     bordercolor="#666666"
     borderopacity="1"
     objecttolerance="10"
     gridtolerance="10"
     guidetolerance="10"
     inkscape:pageopacity="0"
     inkscape:pageshadow="2"
     inkscape:window-width="1868"
     inkscape:window-height="1057"
     id="namedview39"
     showgrid="false"
     inkscape:zoom="7.375"
     inkscape:cx="45.360197"
     inkscape:cy="57.500149"
     inkscape:window-x="1492"
     inkscape:window-y="0"
     inkscape:window-maximized="1"
     inkscape:current-layer="svg2" />
  <defs
     id="defs4">
    <linearGradient
       id="linearGradient6476"
       osb:paint="solid">
      <stop
         id="stop6478"
         offset="0"
         style="stop-color:#ffffff;stop-opacity:1" />
    </linearGradient>
  </defs>
  <g
     transform="matrix(1.6,0,0,1.6,78.344238,99.056)"
     id="focus"
     style="fill:#61afef;fill-opacity:1">
    <rect
       style="opacity:0.00100002;fill:#61afef;fill-opacity:1;stroke:none"
       y="-1.91"
       x="-42.09"
       height="20"
       width="20"
       id="rect4201" />
    <path
       inkscape:connector-curvature="0"
       style="opacity:1;fill:#61afef;fill-opacity:1;stroke:none"
       d="m -32.090149,-0.65999994 c -4.822318,0 -8.75,3.92768194 -8.75,8.75000014 0,4.8223178 3.927682,8.7499998 8.75,8.7499998 4.822318,0 8.75,-3.927682 8.75,-8.7499998 0,-4.8223182 -3.927682,-8.75000014 -8.75,-8.75000014 z m 0,0.67307693 c 4.460761,0 8.076923,3.46548801 8.076923,7.74038471 0,4.0077153 -3.183773,7.3019323 -7.25661,7.6983173 -0.02086,0.0023 -0.04219,-0.0022 -0.0631,0 -0.251251,0.02257 -0.499804,0.04206 -0.757212,0.04206 -0.257408,0 -0.505961,-0.0195 -0.757212,-0.04206 -0.02091,-0.0022 -0.04225,0.0023 -0.0631,0 -4.072838,-0.396385 -7.256611,-3.690602 -7.256611,-7.6983173 0,-4.2748967 3.616162,-7.74038471 8.076922,-7.74038471 z"
       id="path4203" />
    <circle
       style="color:#eff0f1;fill:#61afef;fill-opacity:1;stroke:none"
       transform="matrix(1.015625,0,0,1.015625,0.4098513,-0.0349999)"
       r="8"
       cy="8"
       cx="-32"
       id="circle4205" />
  </g>
  <g
     transform="matrix(1.6,0,0,1.6,78.344238,65.056)"
     id="hover"
     style="fill:#1e2127;fill-opacity:1">
    <rect
       style="opacity:0.00100002;fill:#1e2127;fill-opacity:1;stroke:none"
       y="-1.91"
       x="-42.09"
       height="20"
       width="20"
       id="rect4185" />
    <path
       inkscape:connector-curvature="0"
       style="opacity:0.2;fill:#1e2127;fill-opacity:1;stroke:none"
       d="m -32.090149,-0.65999994 c -4.822318,0 -8.75,3.92768194 -8.75,8.75000014 0,4.8223178 3.927682,8.7499998 8.75,8.7499998 4.822318,0 8.75,-3.927682 8.75,-8.7499998 0,-4.8223182 -3.927682,-8.75000014 -8.75,-8.75000014 z m 0,0.67307693 c 4.460761,0 8.076923,3.46548801 8.076923,7.74038471 0,4.0077153 -3.183773,7.3019323 -7.25661,7.6983173 -0.02086,0.0023 -0.04219,-0.0022 -0.0631,0 -0.251251,0.02257 -0.499804,0.04206 -0.757212,0.04206 -0.257408,0 -0.505961,-0.0195 -0.757212,-0.04206 -0.02091,-0.0022 -0.04225,0.0023 -0.0631,0 -4.072838,-0.396385 -7.256611,-3.690602 -7.256611,-7.6983173 0,-4.2748967 3.616162,-7.74038471 8.076922,-7.74038471 z"
       id="path4187" />
    <circle
       style="color:#eff0f1;fill:#1e2127;fill-opacity:1;stroke:none"
       transform="matrix(1.015625,0,0,1.015625,0.4098513,-0.0349999)"
       r="8"
       cy="8"
       cx="-32"
       id="circle4189" />
  </g>
  <g
     transform="matrix(1.1,0,0,1.1,103.29917,104.101)"
     id="22-22-focus"
     style="fill:#61afef;fill-opacity:1">
    <rect
       style="opacity:0.00100002;fill:#61afef;fill-opacity:1;stroke:none"
       y="-1.91"
       x="-42.09"
       height="20"
       width="20"
       id="rect4209" />
    <path
       inkscape:connector-curvature="0"
       style="opacity:1;fill:#61afef;fill-opacity:1;stroke:none"
       d="m -32.090154,-1.0009092 c -5.010201,0 -9.09091,4.0807082 -9.09091,9.0909093 0,5.0102009 4.080709,9.0909089 9.09091,9.0909089 5.010199,0 9.090908,-4.080708 9.090908,-9.0909089 0,-5.0102011 -4.080709,-9.0909093 -9.090908,-9.0909093 z m 0,1.01010101 c 4.462906,0 8.080807,3.39178199 8.080807,7.57575779 0,3.9224774 -3.185304,7.1562374 -7.260101,7.5441914 -0.03125,0.0036 -0.06332,-0.0032 -0.0947,0 -0.241157,0.0203 -0.479215,0.03157 -0.72601,0.03157 -0.246795,0 -0.484853,-0.01127 -0.726011,-0.03157 -0.03138,-0.0032 -0.06344,0.0036 -0.0947,0 -4.074796,-0.387954 -7.260101,-3.621714 -7.260101,-7.5441914 0,-4.1839758 3.617901,-7.57575779 8.080809,-7.57575779 z"
       id="path4211" />
    <circle
       style="color:#eff0f1;fill:#61afef;fill-opacity:1;stroke:none"
       transform="matrix(1.0227273,0,0,1.0227273,0.63711821,-0.0918182)"
       r="8"
       cy="8"
       cx="-32"
       id="circle4213" />
  </g>
  <g
     transform="matrix(1.1,0,0,1.1,103.29917,71.101)"
     id="22-22-hover"
     style="fill:#1e2127;fill-opacity:1">
    <rect
       style="opacity:0.00100002;fill:#1e2127;fill-opacity:1;stroke:none"
       y="-1.91"
       x="-42.09"
       height="20"
       width="20"
       id="rect4193" />
    <path
       inkscape:connector-curvature="0"
       style="opacity:0.2;fill:#1e2127;fill-opacity:1;stroke:none"
       d="m -32.090154,-1.0009092 c -5.010201,0 -9.09091,4.0807082 -9.09091,9.0909093 0,5.0102009 4.080709,9.0909089 9.09091,9.0909089 5.010199,0 9.090908,-4.080708 9.090908,-9.0909089 0,-5.0102011 -4.080709,-9.0909093 -9.090908,-9.0909093 z m 0,1.01010101 c 4.462906,0 8.080807,3.39178199 8.080807,7.57575779 0,3.9224774 -3.185304,7.1562374 -7.260101,7.5441914 -0.03125,0.0036 -0.06332,-0.0032 -0.0947,0 -0.241157,0.0203 -0.479215,0.03157 -0.72601,0.03157 -0.246795,0 -0.484853,-0.01127 -0.726011,-0.03157 -0.03138,-0.0032 -0.06344,0.0036 -0.0947,0 -4.074796,-0.387954 -7.260101,-3.621714 -7.260101,-7.5441914 0,-4.1839758 3.617901,-7.57575779 8.080809,-7.57575779 z"
       id="path4195" />
    <circle
       style="color:#eff0f1;fill:#1e2127;fill-opacity:1;stroke:none"
       transform="matrix(1.0227273,0,0,1.0227273,0.63711821,-0.0918182)"
       r="8"
       cy="8"
       cx="-32"
       id="path4197" />
  </g>
  <g
     transform="matrix(1.6,0,0,1.6,78.344238,3.0559999)"
     id="normal"
     style="fill:#1e2127;fill-opacity:1">
    <rect
       style="opacity:0.00100002;fill:#1e2127;fill-opacity:1;stroke:none"
       y="-1.91"
       x="-42.09"
       height="20"
       width="20"
       id="rect3803" />
    <path
       inkscape:connector-curvature="0"
       style="opacity:0.2;fill:#1e2127;fill-opacity:1;stroke:none"
       d="m -32.090149,-0.65999994 c -4.822318,0 -8.75,3.92768194 -8.75,8.75000014 0,4.8223178 3.927682,8.7499998 8.75,8.7499998 4.822318,0 8.75,-3.927682 8.75,-8.7499998 0,-4.8223182 -3.927682,-8.75000014 -8.75,-8.75000014 z m 0,0.67307693 c 4.460761,0 8.076923,3.46548801 8.076923,7.74038471 0,4.0077153 -3.183773,7.3019323 -7.25661,7.6983173 -0.02086,0.0023 -0.04219,-0.0022 -0.0631,0 -0.251251,0.02257 -0.499804,0.04206 -0.757212,0.04206 -0.257408,0 -0.505961,-0.0195 -0.757212,-0.04206 -0.02091,-0.0022 -0.04225,0.0023 -0.0631,0 -4.072838,-0.396385 -7.256611,-3.690602 -7.256611,-7.6983173 0,-4.2748967 3.616162,-7.74038471 8.076922,-7.74038471 z"
       id="path3033" />
    <circle
       style="color:#eff0f1;fill:#1e2127;fill-opacity:1;stroke:none"
       transform="matrix(1.015625,0,0,1.015625,0.4098513,-0.0349999)"
       r="8"
       cy="8"
       cx="-32"
       id="path3031" />
  </g>
  <g
     id="pressed"
     style="fill:#61afef;fill-opacity:1">
    <path
       inkscape:connector-curvature="0"
       style="opacity:0.00100002;fill:#61afef;fill-opacity:1;stroke:none"
       d="M 11,31 H 43 V 63 H 11 Z"
       id="rect3870" />
    <circle
       style="color:#3daee9;fill:#61afef;fill-opacity:1;stroke:none"
       r="14"
       cy="47"
       cx="27"
       id="path3872" />
    <path
       inkscape:connector-curvature="0"
       style="color:#3daee9;opacity:1;fill:#61afef;fill-opacity:1;stroke:none"
       d="m 27,33 c -7.71571,0 -14,6.284292 -14,14 0,7.715709 6.28429,14 14,14 7.715708,0 14,-6.284291 14,-14 0,-7.715708 -6.284292,-14 -14,-14 z m 0,1.076923 c 7.111172,0 12.923077,5.811906 12.923077,12.923078 0,7.11117 -5.811905,12.923076 -12.923077,12.923076 -7.11117,0 -12.923078,-5.811906 -12.923078,-12.923076 0,-7.111172 5.811908,-12.923078 12.923078,-12.923078 z"
       id="path4165" />
  </g>
  <g
     transform="matrix(1.1,0,0,1.1,103.29917,13.101)"
     id="22-22-normal"
     style="fill:#1e2127;fill-opacity:1">
    <rect
       style="opacity:0.00100002;fill:#1e2127;fill-opacity:1;stroke:none"
       y="-1.91"
       x="-42.09"
       height="20"
       width="20"
       id="rect3042" />
    <path
       inkscape:connector-curvature="0"
       style="opacity:0.2;fill:#1e2127;fill-opacity:1;stroke:none"
       d="m -32.090154,-1.0009092 c -5.010201,0 -9.09091,4.0807082 -9.09091,9.0909093 0,5.0102009 4.080709,9.0909089 9.09091,9.0909089 5.010199,0 9.090908,-4.080708 9.090908,-9.0909089 0,-5.0102011 -4.080709,-9.0909093 -9.090908,-9.0909093 z m 0,1.01010101 c 4.462906,0 8.080807,3.39178199 8.080807,7.57575779 0,3.9224774 -3.185304,7.1562374 -7.260101,7.5441914 -0.03125,0.0036 -0.06332,-0.0032 -0.0947,0 -0.241157,0.0203 -0.479215,0.03157 -0.72601,0.03157 -0.246795,0 -0.484853,-0.01127 -0.726011,-0.03157 -0.03138,-0.0032 -0.06344,0.0036 -0.0947,0 -4.074796,-0.387954 -7.260101,-3.621714 -7.260101,-7.5441914 0,-4.1839758 3.617901,-7.57575779 8.080809,-7.57575779 z"
       id="path3046" />
    <path
       inkscape:connector-curvature="0"
       style="fill:#1e2127;fill-opacity:1;stroke:none"
       transform="matrix(1.0227273,0,0,1.0227273,0.63711821,-0.0918182)"
       d="m -24,8 a 8,8 0 0 1 -8,8 8,8 0 0 1 -8,-8 8,8 0 0 1 8,-8 8,8 0 0 1 8,8 z"
       id="path3044" />
  </g>
  <g
     id="22-22-pressed"
     style="fill:#61afef;fill-opacity:1">
    <rect
       style="opacity:0.00100002;fill:#61afef;fill-opacity:1;stroke:none"
       y="41"
       x="57"
       height="22"
       width="22"
       id="rect3064" />
    <circle
       style="color:#3daee9;fill:#61afef;fill-opacity:1;stroke:none"
       r="10"
       cy="52"
       cx="68"
       id="path3066" />
    <path
       inkscape:connector-curvature="0"
       style="color:#3daee9;opacity:1;fill:#61afef;fill-opacity:1;stroke:none"
       d="m 68,42 c -5.511221,0 -10,4.488779 -10,10 0,5.51122 4.488779,10 10,10 5.51122,0 10,-4.48878 10,-10 0,-5.511221 -4.48878,-10 -10,-10 z m 0,1.111111 c 4.78478,0 8.888888,4.104109 8.888888,8.888889 0,4.882989 -4.079555,8.888888 -8.888888,8.888888 -4.78478,0 -8.888889,-4.079557 -8.888889,-8.888888 0,-4.784781 4.030453,-8.888889 8.888889,-8.888889 z"
       id="path3052-3" />
  </g>
</svg>
