#define max_toggled_width 15
#define max_toggled_height 15
static unsigned char max_toggled_bits[] = {
   0x00, 0x00, 0x00, 0x00, 0x00, 0x00, 0x00, 0x00, 0x00, 0x00, 0x0c, 0x18,
   0x18, 0x0c, 0x30, 0x06, 0x60, 0x03, 0xc0, 0x01, 0x80, 0x00, 0x00, 0x00,
   0x00, 0x00, 0x00, 0x00, 0x00, 0x00 };
