#define max_width 15
#define max_height 15
static unsigned char max_bits[] = {
   0x00, 0x00, 0x00, 0x00, 0x00, 0x00, 0x00, 0x00, 0x00, 0x00, 0x80, 0x00,
   0xc0, 0x01, 0x60, 0x03, 0x30, 0x06, 0x18, 0x0c, 0x0c, 0x18, 0x00, 0x00,
   0x00, 0x00, 0x00, 0x00, 0x00, 0x00 };
