#define shade_width 9
#define shade_height 9
static unsigned char shade_bits[] = {
   0x00, 0x00, 0x00, 0x00, 0x00, 0x00, 0x10, 0x00, 0x38, 0x00, 0x7c, 0x00,
   0xfe, 0x00, 0xff, 0x01, 0x83, 0x01 };
