#define close_width 10
#define close_height 10
static unsigned char close_bits[] = {
   0x00, 0x00, 0x80, 0x01, 0xc0, 0x01, 0xe0, 0x00, 0x70, 0x00, 0x38, 0x00,
   0x1c, 0x00, 0x0e, 0x00, 0x06, 0x00, 0x00, 0x00 };
