<?xml version="1.0" encoding="UTF-8" standalone="no"?>
<svg
   xmlns:dc="http://purl.org/dc/elements/1.1/"
   xmlns:cc="http://creativecommons.org/ns#"
   xmlns:rdf="http://www.w3.org/1999/02/22-rdf-syntax-ns#"
   xmlns:svg="http://www.w3.org/2000/svg"
   xmlns="http://www.w3.org/2000/svg"
   xmlns:sodipodi="http://sodipodi.sourceforge.net/DTD/sodipodi-0.dtd"
   xmlns:inkscape="http://www.inkscape.org/namespaces/inkscape"
   width="32"
   height="32"
   version="1"
   id="svg16"
   sodipodi:docname="folder-blue-download.svg"
   inkscape:version="0.92.4 5da689c313, 2019-01-14">
  <metadata
     id="metadata22">
    <rdf:RDF>
      <cc:Work
         rdf:about="">
        <dc:format>image/svg+xml</dc:format>
        <dc:type
           rdf:resource="http://purl.org/dc/dcmitype/StillImage" />
      </cc:Work>
    </rdf:RDF>
  </metadata>
  <defs
     id="defs20" />
  <sodipodi:namedview
     pagecolor="#ffffff"
     bordercolor="#666666"
     borderopacity="1"
     objecttolerance="10"
     gridtolerance="10"
     guidetolerance="10"
     inkscape:pageopacity="0"
     inkscape:pageshadow="2"
     inkscape:window-width="1058"
     inkscape:window-height="496"
     id="namedview18"
     showgrid="false"
     inkscape:zoom="10.429825"
     inkscape:cx="19.918008"
     inkscape:cy="17.978513"
     inkscape:window-x="2287"
     inkscape:window-y="55"
     inkscape:window-maximized="0"
     inkscape:current-layer="svg16" />
  <rect
     style="opacity:0.2"
     width="25"
     height="16"
     x="3"
     y="12"
     rx="1.25"
     ry="1.25"
     id="rect2" />
  <path
     style="fill:#9e72b3;fill-opacity:1"
     d="M 3,21.75 C 3,22.442 3.5575,23 4.25,23 H 26.75 C 27.442,23 28,22.442 28,21.75 V 8.25 C 28,7.5575 27.442,7 26.75,7 H 14 V 6.25 C 14,5.5575 13.443,5 12.75,5 H 4.25 C 3.5575,5 3,5.5575 3,6.25"
     id="path4" />
  <rect
     style="opacity:0.2"
     width="25"
     height="16"
     x="3"
     y="10"
     rx="1.25"
     ry="1.25"
     id="rect6" />
  <rect
     style="fill:#e4e4e4"
     width="21"
     height="10"
     x="5"
     y="9"
     rx="1.25"
     ry="1.25"
     id="rect8" />
  <rect
     style="fill:#c68edf;fill-opacity:1"
     width="25"
     height="16"
     x="3"
     y="11"
     rx="1.25"
     ry="1.25"
     id="rect10" />
  <path
     style="opacity:0.1;fill:#9e72b3;fill-opacity:1"
     d="M 4.25 5 C 3.5575 5 3 5.5575 3 6.25 L 3 7.25 C 3 6.5575 3.5575 6 4.25 6 L 12.75 6 C 13.443 6 14 6.5575 14 7.25 L 14 8 L 26.75 8 C 27.442 8 28 8.5575 28 9.25 L 28 8.25 C 28 7.5575 27.442 7 26.75 7 L 14 7 L 14 6.25 C 14 5.5575 13.443 5 12.75 5 L 4.25 5 z"
     id="path12" />
  <path
     style="fill:#1d344f"
     d="M 15,14 V 18 H 13 L 16,22 19,18 H 17 V 14 Z M 12,22 V 24 H 20 V 22 Z"
     id="path14" />
</svg>
