<?xml version="1.0" encoding="UTF-8" standalone="no"?>
<svg
   xmlns:dc="http://purl.org/dc/elements/1.1/"
   xmlns:cc="http://creativecommons.org/ns#"
   xmlns:rdf="http://www.w3.org/1999/02/22-rdf-syntax-ns#"
   xmlns:svg="http://www.w3.org/2000/svg"
   xmlns="http://www.w3.org/2000/svg"
   xmlns:sodipodi="http://sodipodi.sourceforge.net/DTD/sodipodi-0.dtd"
   xmlns:inkscape="http://www.inkscape.org/namespaces/inkscape"
   id="svg3642"
   width="48"
   height="98"
   version="1"
   sodipodi:docname="scrollbar.svg"
   inkscape:version="0.92.2 2405546, 2018-03-11">
  <metadata
     id="metadata143">
    <rdf:RDF>
      <cc:Work
         rdf:about="">
        <dc:format>image/svg+xml</dc:format>
        <dc:type
           rdf:resource="http://purl.org/dc/dcmitype/StillImage" />
      </cc:Work>
    </rdf:RDF>
  </metadata>
  <sodipodi:namedview
     pagecolor="#ffffff"
     bordercolor="#666666"
     borderopacity="1"
     objecttolerance="10"
     gridtolerance="10"
     guidetolerance="10"
     inkscape:pageopacity="0"
     inkscape:pageshadow="2"
     inkscape:window-width="1868"
     inkscape:window-height="1057"
     id="namedview141"
     showgrid="false"
     inkscape:zoom="4.8163265"
     inkscape:cx="17.218285"
     inkscape:cy="62.588659"
     inkscape:window-x="1492"
     inkscape:window-y="0"
     inkscape:window-maximized="1"
     inkscape:current-layer="svg3642" />
  <defs
     id="defs3644">
    <linearGradient
       id="linearGradient4443">
      <stop
         id="stop4445"
         offset="0"
         style="stop-color:#000000;stop-opacity:1" />
      <stop
         id="stop4451"
         offset=".218"
         style="stop-color:#000000;stop-opacity:0.49803922" />
      <stop
         id="stop4453"
         offset=".355"
         style="stop-color:#000000;stop-opacity:0.24705882" />
      <stop
         id="stop4455"
         offset=".571"
         style="stop-color:#000000;stop-opacity:0.12156863" />
      <stop
         id="stop4447"
         offset="1"
         style="stop-color:#000000;stop-opacity:0" />
    </linearGradient>
    <linearGradient
       id="linearGradient8734">
      <stop
         id="stop8736"
         offset="0"
         style="stop-color:#ffffff;stop-opacity:1" />
      <stop
         id="stop8738"
         offset="1"
         style="stop-color:#ffffff;stop-opacity:0" />
    </linearGradient>
  </defs>
  <g
     id="g1204">
    <rect
       id="slider-center"
       width="1"
       height="10"
       x="24"
       y="20"
       style="opacity:1;fill:#abb2bf;fill-opacity:1;fill-rule:evenodd;stroke:none" />
    <g
       style="fill:#abb2bf;fill-opacity:1"
       id="slider-right"
       transform="matrix(0.75,0,0,1,19.25,13)">
      <path
         id="rect3838"
         d="m 9,7 v 10 h 4 V 7 Z"
         style="opacity:1;fill:#abb2bf;fill-opacity:1;fill-rule:evenodd;stroke:none"
         inkscape:connector-curvature="0" />
      <rect
         id="rect3856"
         width="1"
         height="10"
         x="29"
         y="20"
         transform="matrix(1.3333333,0,0,1,-25.666667,-13)"
         style="opacity:0;fill:#abb2bf;fill-opacity:1;stroke:none" />
    </g>
    <g
       style="fill:#abb2bf;fill-opacity:1"
       id="slider-topright"
       transform="matrix(0.75,0,0,0.75,19.25,13.75)">
      <rect
         id="rect3852"
         width="4"
         height="4"
         x="26"
         y="15"
         transform="matrix(1.3333333,0,0,1.3333333,-25.666667,-18.333333)"
         style="opacity:0;fill:#abb2bf;fill-opacity:1;stroke:none" />
      <path
         id="rect3840"
         d="m 9,3 v 4 h 4 C 13,4.784 11.216,3 9,3 Z"
         style="opacity:1;fill:#abb2bf;fill-opacity:1;fill-rule:evenodd;stroke:none"
         inkscape:connector-curvature="0" />
    </g>
    <g
       style="fill:#abb2bf;fill-opacity:1"
       id="slider-bottomright"
       transform="matrix(0.75,0,0,0.75,19.25,18.25)">
      <rect
         id="rect3862"
         width="4"
         height="4"
         x="26"
         y="31"
         transform="matrix(1.3333333,0,0,1.3333333,-25.666667,-24.333333)"
         style="opacity:0;fill:#abb2bf;fill-opacity:1;stroke:none" />
      <path
         id="path3871"
         d="m 9,21 v -4 h 4 c 0,2.216 -1.784,4 -4,4 z"
         style="opacity:1;fill:#abb2bf;fill-opacity:1;fill-rule:evenodd;stroke:none"
         inkscape:connector-curvature="0" />
    </g>
    <g
       style="fill:#abb2bf;fill-opacity:1"
       id="slider-left"
       transform="matrix(-0.75,0,0,1,29.75,13)">
      <path
         id="path3891"
         d="m 9,7 v 10 h 4 V 7 Z"
         style="opacity:1;fill:#abb2bf;fill-opacity:1;fill-rule:evenodd;stroke:none"
         inkscape:connector-curvature="0" />
      <rect
         id="rect3854"
         width="1"
         height="10"
         x="19"
         y="20"
         transform="matrix(-1.3333333,0,0,1,39.666667,-13)"
         style="opacity:0;fill:#abb2bf;fill-opacity:1;stroke:none" />
    </g>
    <g
       style="fill:#abb2bf;fill-opacity:1"
       id="slider-topleft"
       transform="matrix(-0.75,0,0,0.75,29.75,13.75)">
      <rect
         id="rect3848"
         width="4"
         height="4"
         x="19"
         y="15"
         transform="matrix(-1.3333333,0,0,1.3333333,39.666667,-18.333333)"
         style="opacity:0;fill:#abb2bf;fill-opacity:1;stroke:none" />
      <path
         id="path3895"
         d="m 9,3 v 4 h 4 C 13,4.784 11.216,3 9,3 Z"
         style="opacity:1;fill:#abb2bf;fill-opacity:1;fill-rule:evenodd;stroke:none"
         inkscape:connector-curvature="0" />
    </g>
    <g
       style="fill:#abb2bf;fill-opacity:1"
       id="slider-bottomleft"
       transform="matrix(-0.75,0,0,0.75,29.75,18.25)">
      <rect
         id="rect3858"
         width="4"
         height="4"
         x="19"
         y="31"
         transform="matrix(-1.3333333,0,0,1.3333333,39.666667,-24.333333)"
         style="opacity:0;fill:#abb2bf;fill-opacity:1;stroke:none" />
      <path
         id="path3901"
         d="m 9,21 v -4 h 4 c 0,2.216 -1.784,4 -4,4 z"
         style="opacity:1;fill:#abb2bf;fill-opacity:1;fill-rule:evenodd;stroke:none"
         inkscape:connector-curvature="0" />
    </g>
    <g
       style="fill:#abb2bf;fill-opacity:1"
       id="slider-top"
       transform="matrix(0,-0.75,-0.1,0,25.7,25.75)">
      <rect
         id="rect3850"
         width="1"
         height="4"
         x="24"
         y="15"
         transform="matrix(0,-10,-1.3333333,0,34.333333,257)"
         style="opacity:0.01000001;fill:#abb2bf;fill-opacity:1;stroke:none" />
      <path
         id="path3909"
         d="m 9,7 v 10 h 4 V 7 Z"
         style="opacity:1;fill:#abb2bf;fill-opacity:1;fill-rule:evenodd;stroke:none"
         inkscape:connector-curvature="0" />
    </g>
    <g
       style="fill:#abb2bf;fill-opacity:1"
       id="slider-bottom"
       transform="matrix(0,0.75,-0.1,0,25.7,24.25)">
      <rect
         id="rect3860"
         width="1"
         height="4"
         x="24"
         y="31"
         transform="matrix(0,-10,1.3333333,0,-32.333333,257)"
         style="opacity:0;fill:#abb2bf;fill-opacity:1;stroke:none" />
      <path
         id="path3915"
         d="m 9,7 v 10 h 4 V 7 Z"
         style="opacity:1;fill:#abb2bf;fill-opacity:1;fill-rule:evenodd;stroke:none"
         inkscape:connector-curvature="0" />
    </g>
    <rect
       id="hint-scrollbar-size"
       width="8"
       height="8"
       x="4"
       y="25"
       rx="0"
       ry="8"
       style="fill:#4e9a06;fill-opacity:1;fill-rule:nonzero;stroke:none" />
    <rect
       id="hint-tile-center"
       width="2.033"
       height="2.0769999"
       x="7.2600002"
       y="11.66"
       rx="0"
       ry="2.0769999"
       style="fill:#4e9a06;fill-opacity:1;fill-rule:nonzero;stroke:none" />
    <rect
       id="background-vertical-center"
       width="1"
       height="10"
       x="38"
       y="20"
       style="opacity:1;fill:#1e2127;fill-opacity:1;fill-rule:evenodd;stroke:none" />
    <g
       style="fill:#1e2127;fill-opacity:1"
       id="background-vertical-right"
       transform="matrix(0.75,0,0,1,33.25,13)">
      <path
         id="rect3838-1"
         d="m 9,7 v 10 h 4 V 7 Z"
         style="opacity:1;fill:#1e2127;fill-opacity:1;fill-rule:evenodd;stroke:none"
         inkscape:connector-curvature="0" />
      <rect
         id="rect3872"
         width="1"
         height="10"
         x="43"
         y="20"
         transform="matrix(1.3333333,0,0,1,-44.333333,-13)"
         style="opacity:0;fill:#1e2127;fill-opacity:1;stroke:none" />
    </g>
    <g
       style="fill:#1e2127;fill-opacity:1"
       id="background-vertical-topright"
       transform="matrix(0.75,0,0,0.75,33.25,13.75)">
      <rect
         id="rect3868"
         width="4"
         height="4"
         x="40"
         y="15"
         transform="matrix(1.3333333,0,0,1.3333333,-44.333333,-18.333333)"
         style="opacity:0;fill:#1e2127;fill-opacity:1;stroke:none" />
      <path
         id="rect3840-1"
         d="m 9,3 v 4 h 4 C 13,4.784 11.216,3 9,3 Z"
         style="opacity:1;fill:#1e2127;fill-opacity:1;fill-rule:evenodd;stroke:none"
         inkscape:connector-curvature="0" />
    </g>
    <g
       style="fill:#1e2127;fill-opacity:1"
       id="background-vertical-bottomright"
       transform="matrix(0.75,0,0,0.75,33.25,18.25)">
      <rect
         id="rect3878"
         width="4"
         height="4"
         x="40"
         y="31"
         transform="matrix(1.3333333,0,0,1.3333333,-44.333333,-24.333333)"
         style="opacity:0;fill:#1e2127;fill-opacity:1;stroke:none" />
      <path
         id="path3871-2"
         d="m 9,21 v -4 h 4 c 0,2.216 -1.784,4 -4,4 z"
         style="opacity:1;fill:#1e2127;fill-opacity:1;fill-rule:evenodd;stroke:none"
         inkscape:connector-curvature="0" />
    </g>
    <g
       style="fill:#1e2127;fill-opacity:1"
       id="background-vertical-left"
       transform="matrix(-0.75,0,0,1,43.75,13)">
      <path
         id="path3891-2"
         d="m 9,7 v 10 h 4 V 7 Z"
         style="opacity:1;fill:#1e2127;fill-opacity:1;fill-rule:evenodd;stroke:none"
         inkscape:connector-curvature="0" />
      <rect
         id="rect3870"
         width="1"
         height="10"
         x="33"
         y="20"
         transform="matrix(-1.3333333,0,0,1,58.333333,-13)"
         style="opacity:0.01000001;fill:#1e2127;fill-opacity:1;stroke:none" />
    </g>
    <g
       style="fill:#1e2127;fill-opacity:1"
       id="background-vertical-topleft"
       transform="matrix(-0.75,0,0,0.75,43.75,13.75)">
      <rect
         id="rect3864"
         width="4"
         height="4"
         x="33"
         y="15"
         transform="matrix(-1.3333333,0,0,1.3333333,58.333333,-18.333333)"
         style="opacity:0;fill:#1e2127;fill-opacity:1;stroke:none" />
      <path
         id="path3895-9"
         d="m 9,3 v 4 h 4 C 13,4.784 11.216,3 9,3 Z"
         style="opacity:1;fill:#1e2127;fill-opacity:1;fill-rule:evenodd;stroke:none"
         inkscape:connector-curvature="0" />
    </g>
    <g
       style="fill:#1e2127;fill-opacity:1"
       id="background-vertical-bottomleft"
       transform="matrix(-0.75,0,0,0.75,43.75,18.25)">
      <rect
         id="rect3874"
         width="4"
         height="4"
         x="33"
         y="31"
         transform="matrix(-1.3333333,0,0,1.3333333,58.333333,-24.333333)"
         style="opacity:0;fill:#1e2127;fill-opacity:1;stroke:none" />
      <path
         id="path3901-7"
         d="m 9,21 v -4 h 4 c 0,2.216 -1.784,4 -4,4 z"
         style="opacity:1;fill:#1e2127;fill-opacity:1;fill-rule:evenodd;stroke:none"
         inkscape:connector-curvature="0" />
    </g>
    <g
       style="fill:#1e2127;fill-opacity:1"
       id="background-vertical-top"
       transform="matrix(0,-0.75,-0.1,0,39.7,25.75)">
      <rect
         id="rect3866"
         width="1"
         height="4"
         x="38"
         y="15"
         transform="matrix(0,-10,-1.3333333,0,34.333333,397)"
         style="opacity:0;fill:#1e2127;fill-opacity:1;stroke:none" />
      <path
         id="path3909-8"
         d="m 9,7 v 10 h 4 V 7 Z"
         style="opacity:1;fill:#1e2127;fill-opacity:1;fill-rule:evenodd;stroke:none"
         inkscape:connector-curvature="0" />
    </g>
    <g
       style="fill:#1e2127;fill-opacity:1"
       id="background-vertical-bottom"
       transform="matrix(0,0.75,-0.1,0,39.7,24.25)">
      <rect
         id="rect3876"
         width="1"
         height="4"
         x="38"
         y="31"
         transform="matrix(0,-10,1.3333333,0,-32.333333,397)"
         style="opacity:0;fill:#1e2127;fill-opacity:1;stroke:none" />
      <path
         id="path3915-5"
         d="m 9,7 v 10 h 4 V 7 Z"
         style="opacity:1;fill:#1e2127;fill-opacity:1;fill-rule:evenodd;stroke:none"
         inkscape:connector-curvature="0" />
    </g>
    <rect
       id="mouseover-slider-center"
       width="1"
       height="10"
       x="24"
       y="42"
       style="fill:#abb2bf;fill-opacity:1;fill-rule:evenodd;stroke:none" />
    <g
       style="fill:#abb2bf;fill-opacity:1"
       id="mouseover-slider-right"
       transform="matrix(0.75,0,0,1,19.25,35)">
      <path
         id="rect3838-4"
         d="m 9,7 v 10 h 4 V 7 Z"
         style="fill:#abb2bf;fill-opacity:1;fill-rule:evenodd;stroke:none"
         inkscape:connector-curvature="0" />
      <rect
         id="rect3904"
         width="1"
         height="10"
         x="29"
         y="42"
         transform="matrix(1.3333333,0,0,1,-25.666667,-35)"
         style="opacity:0;fill:#abb2bf;fill-opacity:1;stroke:none" />
    </g>
    <g
       style="fill:#abb2bf;fill-opacity:1"
       id="mouseover-slider-topright"
       transform="matrix(0.75,0,0,0.75,19.25,35.75)">
      <rect
         id="rect3894"
         width="4"
         height="4"
         x="26"
         y="37"
         transform="matrix(1.3333333,0,0,1.3333333,-25.666667,-47.666667)"
         style="opacity:0;fill:#abb2bf;fill-opacity:1;stroke:none" />
      <path
         id="rect3840-2"
         d="m 9,3 v 4 h 4 C 13,4.784 11.216,3 9,3 Z"
         style="fill:#abb2bf;fill-opacity:1;fill-rule:evenodd;stroke:none"
         inkscape:connector-curvature="0" />
    </g>
    <g
       id="mouseover-slider-bottomright"
       transform="matrix(0.75,0,0,0.75,19.25,40.25)"
       style="fill:#abb2bf;fill-opacity:1">
      <path
         id="path3871-1"
         d="m 9,21 v -4 h 4 c 0,2.216 -1.784,4 -4,4 z"
         style="fill:#abb2bf;fill-opacity:1;fill-rule:evenodd;stroke:none"
         inkscape:connector-curvature="0" />
      <rect
         id="rect3908"
         width="4"
         height="4"
         x="26"
         y="53"
         transform="matrix(1.3333333,0,0,1.3333333,-25.666667,-53.666667)"
         style="opacity:0;fill:#abb2bf;fill-opacity:1;stroke:none" />
    </g>
    <g
       style="fill:#abb2bf;fill-opacity:1"
       id="mouseover-slider-left"
       transform="matrix(-0.75,0,0,1,29.75,35)">
      <path
         id="path3891-9"
         d="m 9,7 v 10 h 4 V 7 Z"
         style="opacity:1;fill:#abb2bf;fill-opacity:1;fill-rule:evenodd;stroke:none"
         inkscape:connector-curvature="0" />
      <rect
         id="rect3902"
         width="1"
         height="10"
         x="19"
         y="42"
         transform="matrix(-1.3333333,0,0,1,39.666667,-35)"
         style="opacity:0;fill:#abb2bf;fill-opacity:1;stroke:none" />
    </g>
    <g
       style="fill:#abb2bf;fill-opacity:1"
       id="mouseover-slider-topleft"
       transform="matrix(-0.75,0,0,0.75,29.75,35.75)">
      <rect
         id="rect3880"
         width="4"
         height="4"
         x="19"
         y="37"
         transform="matrix(-1.3333333,0,0,1.3333333,39.666667,-47.666667)"
         style="opacity:0;fill:#abb2bf;fill-opacity:1;stroke:none" />
      <path
         id="path3895-2"
         d="m 9,3 v 4 h 4 C 13,4.784 11.216,3 9,3 Z"
         style="fill:#abb2bf;fill-opacity:1;fill-rule:evenodd;stroke:none"
         inkscape:connector-curvature="0" />
    </g>
    <g
       style="fill:#abb2bf;fill-opacity:1"
       id="mouseover-slider-bottomleft"
       transform="matrix(-0.75,0,0,0.75,29.75,40.25)">
      <rect
         id="rect3890"
         width="4"
         height="4"
         x="19"
         y="53"
         transform="matrix(-1.3333333,0,0,1.3333333,39.666667,-53.666667)"
         style="opacity:0;fill:#abb2bf;fill-opacity:1;stroke:none" />
      <path
         id="path3901-9"
         d="m 9,21 v -4 h 4 c 0,2.216 -1.784,4 -4,4 z"
         style="fill:#abb2bf;fill-opacity:1;fill-rule:evenodd;stroke:none"
         inkscape:connector-curvature="0" />
    </g>
    <g
       style="fill:#abb2bf;fill-opacity:1"
       id="mouseover-slider-top"
       transform="matrix(0,-0.75,-0.1,0,25.7,47.75)">
      <rect
         id="rect3892"
         width="1"
         height="4"
         x="24"
         y="37"
         transform="matrix(0,-10,-1.3333333,0,63.666667,257)"
         style="opacity:0;fill:#abb2bf;fill-opacity:1;stroke:none" />
      <path
         id="path3909-6"
         d="m 9,7 v 10 h 4 V 7 Z"
         style="fill:#abb2bf;fill-opacity:1;fill-rule:evenodd;stroke:none"
         inkscape:connector-curvature="0" />
    </g>
    <g
       style="fill:#abb2bf;fill-opacity:1"
       id="mouseover-slider-bottom"
       transform="matrix(0,0.75,-0.1,0,25.7,46.25)">
      <rect
         id="rect3906"
         width="1"
         height="4"
         x="24"
         y="53"
         transform="matrix(0,-10,1.3333333,0,-61.666667,257)"
         style="opacity:0;fill:#abb2bf;fill-opacity:1;stroke:none" />
      <path
         id="path3915-6"
         d="m 9,7 v 10 h 4 V 7 Z"
         style="fill:#abb2bf;fill-opacity:1;fill-rule:evenodd;stroke:none"
         inkscape:connector-curvature="0" />
    </g>
    <rect
       id="sunken-slider-center"
       width="1"
       height="10"
       x="24"
       y="64"
       style="fill:#61afef;fill-opacity:1;fill-rule:evenodd;stroke:none" />
    <g
       style="fill:#61afef;fill-opacity:1"
       id="sunken-slider-right"
       transform="matrix(0.75,0,0,1,19.25,57)">
      <path
         id="rect3838-4-8"
         d="m 9,7 v 10 h 4 V 7 Z"
         style="fill:#61afef;fill-opacity:1;fill-rule:evenodd;stroke:none"
         inkscape:connector-curvature="0" />
      <rect
         id="rect3924"
         width="1"
         height="10"
         x="29"
         y="64"
         transform="matrix(1.3333333,0,0,1,-25.666667,-57)"
         style="opacity:0;fill:#61afef;fill-opacity:1;stroke:none" />
    </g>
    <g
       style="fill:#61afef;fill-opacity:1"
       id="sunken-slider-topright"
       transform="matrix(0.75,0,0,0.75,19.25,57.75)">
      <rect
         id="rect3920"
         width="4"
         height="4"
         x="26"
         y="59"
         transform="matrix(1.3333333,0,0,1.3333333,-25.666667,-77)"
         style="opacity:0;fill:#61afef;fill-opacity:1;stroke:none" />
      <path
         id="rect3840-2-9"
         d="m 9,3 v 4 h 4 C 13,4.784 11.216,3 9,3 Z"
         style="fill:#61afef;fill-opacity:1;fill-rule:evenodd;stroke:none"
         inkscape:connector-curvature="0" />
    </g>
    <g
       style="fill:#61afef;fill-opacity:1"
       id="sunken-slider-bottomright"
       transform="matrix(0.75,0,0,0.75,19.25,62.25)">
      <rect
         id="rect3930"
         width="4"
         height="4"
         x="26"
         y="75"
         transform="matrix(1.3333333,0,0,1.3333333,-25.666667,-83)"
         style="opacity:0;fill:#61afef;fill-opacity:1;stroke:none" />
      <path
         id="path3871-1-7"
         d="m 9,21 v -4 h 4 c 0,2.216 -1.784,4 -4,4 z"
         style="fill:#61afef;fill-opacity:1;fill-rule:evenodd;stroke:none"
         inkscape:connector-curvature="0" />
    </g>
    <g
       style="fill:#61afef;fill-opacity:1"
       id="sunken-slider-left"
       transform="matrix(-0.75,0,0,1,29.75,57)">
      <path
         id="path3891-9-4"
         d="m 9,7 v 10 h 4 V 7 Z"
         style="fill:#61afef;fill-opacity:1;fill-rule:evenodd;stroke:none"
         inkscape:connector-curvature="0" />
      <rect
         id="rect3922"
         width="1"
         height="10"
         x="19"
         y="64"
         transform="matrix(-1.3333333,0,0,1,39.666667,-57)"
         style="opacity:0;fill:#61afef;fill-opacity:1;stroke:none" />
    </g>
    <g
       style="fill:#61afef;fill-opacity:1"
       id="sunken-slider-topleft"
       transform="matrix(-0.75,0,0,0.75,29.75,57.75)">
      <rect
         id="rect3916"
         width="4"
         height="4"
         x="19"
         y="59"
         transform="matrix(-1.3333333,0,0,1.3333333,39.666667,-77)"
         style="opacity:0;fill:#61afef;fill-opacity:1;stroke:none" />
      <path
         id="path3895-2-1"
         d="m 9,3 v 4 h 4 C 13,4.784 11.216,3 9,3 Z"
         style="fill:#61afef;fill-opacity:1;fill-rule:evenodd;stroke:none"
         inkscape:connector-curvature="0" />
    </g>
    <g
       style="fill:#61afef;fill-opacity:1"
       id="sunken-slider-bottomleft"
       transform="matrix(-0.75,0,0,0.75,29.75,62.25)">
      <rect
         id="rect3926"
         width="4"
         height="4"
         x="19"
         y="75"
         transform="matrix(-1.3333333,0,0,1.3333333,39.666667,-83)"
         style="opacity:0;fill:#61afef;fill-opacity:1;stroke:none" />
      <path
         id="path3901-9-9"
         d="m 9,21 v -4 h 4 c 0,2.216 -1.784,4 -4,4 z"
         style="fill:#61afef;fill-opacity:1;fill-rule:evenodd;stroke:none"
         inkscape:connector-curvature="0" />
    </g>
    <g
       style="fill:#61afef;fill-opacity:1"
       id="sunken-slider-top"
       transform="matrix(0,-0.75,-0.1,0,25.7,69.75)">
      <rect
         id="rect3918"
         width="1"
         height="4"
         x="24"
         y="59"
         transform="matrix(0,-10,-1.3333333,0,93,257)"
         style="opacity:0;fill:#61afef;fill-opacity:1;stroke:none" />
      <path
         id="path3909-6-1"
         d="m 9,7 v 10 h 4 V 7 Z"
         style="fill:#61afef;fill-opacity:1;fill-rule:evenodd;stroke:none"
         inkscape:connector-curvature="0" />
    </g>
    <g
       style="fill:#61afef;fill-opacity:1"
       id="sunken-slider-bottom"
       transform="matrix(0,0.75,-0.1,0,25.7,68.25)">
      <rect
         id="rect3928"
         width="1"
         height="4"
         x="24"
         y="75"
         transform="matrix(0,-10,1.3333333,0,-91,257)"
         style="opacity:0;fill:#61afef;fill-opacity:1;stroke:none" />
      <path
         id="path3915-6-3"
         d="m 9,7 v 10 h 4 V 7 Z"
         style="fill:#61afef;fill-opacity:1;fill-rule:evenodd;stroke:none"
         inkscape:connector-curvature="0" />
    </g>
    <rect
       id="background-horizontal-center"
       width="1"
       height="10"
       x="38"
       y="42"
       style="opacity:1;fill:#1e2127;fill-opacity:1;fill-rule:evenodd;stroke:none" />
    <g
       style="fill:#1e2127;fill-opacity:1"
       id="background-horizontal-right"
       transform="matrix(0.75,0,0,1,33.25,35)">
      <path
         id="rect3838-1-3"
         d="m 9,7 v 10 h 4 V 7 Z"
         style="opacity:1;fill:#1e2127;fill-opacity:1;fill-rule:evenodd;stroke:none"
         inkscape:connector-curvature="0" />
      <rect
         id="rect3888"
         width="1"
         height="10"
         x="43"
         y="42"
         transform="matrix(1.3333333,0,0,1,-44.333333,-35)"
         style="opacity:0;fill:#1e2127;fill-opacity:1;stroke:none" />
    </g>
    <g
       style="fill:#1e2127;fill-opacity:1"
       id="background-horizontal-topright"
       transform="matrix(0.75,0,0,0.75,33.25,35.75)">
      <rect
         id="rect3884"
         width="4"
         height="4"
         x="40"
         y="37"
         transform="matrix(1.3333333,0,0,1.3333333,-44.333333,-47.666667)"
         style="opacity:0;fill:#1e2127;fill-opacity:1;stroke:none" />
      <path
         id="rect3840-1-0"
         d="m 9,3 v 4 h 4 C 13,4.784 11.216,3 9,3 Z"
         style="opacity:1;fill:#1e2127;fill-opacity:1;fill-rule:evenodd;stroke:none"
         inkscape:connector-curvature="0" />
    </g>
    <g
       style="fill:#1e2127;fill-opacity:1"
       id="background-horizontal-bottomright"
       transform="matrix(0.75,0,0,0.75,33.25,40.25)">
      <rect
         id="rect3914"
         width="4"
         height="4"
         x="40"
         y="53"
         transform="matrix(1.3333333,0,0,1.3333333,-44.333333,-53.666667)"
         style="opacity:0;fill:#1e2127;fill-opacity:1;stroke:none" />
      <path
         id="path3871-2-0"
         d="m 9,21 v -4 h 4 c 0,2.216 -1.784,4 -4,4 z"
         style="opacity:1;fill:#1e2127;fill-opacity:1;fill-rule:evenodd;stroke:none"
         inkscape:connector-curvature="0" />
    </g>
    <g
       style="fill:#1e2127;fill-opacity:1"
       id="background-horizontal-left"
       transform="matrix(-0.75,0,0,1,43.75,35)">
      <path
         id="path3891-2-6"
         d="m 9,7 v 10 h 4 V 7 Z"
         style="opacity:1;fill:#1e2127;fill-opacity:1;fill-rule:evenodd;stroke:none"
         inkscape:connector-curvature="0" />
      <rect
         id="rect3886"
         width="1"
         height="10"
         x="33"
         y="42"
         transform="matrix(-1.3333333,0,0,1,58.333333,-35)"
         style="opacity:0;fill:#1e2127;fill-opacity:1;stroke:none" />
    </g>
    <g
       style="fill:#1e2127;fill-opacity:1"
       id="background-horizontal-topleft"
       transform="matrix(-0.75,0,0,0.75,43.75,35.75)">
      <rect
         id="rect3896"
         width="4"
         height="4"
         x="33"
         y="37"
         transform="matrix(-1.3333333,0,0,1.3333333,58.333333,-47.666667)"
         style="opacity:0;fill:#1e2127;fill-opacity:1;stroke:none" />
      <path
         id="path3895-9-8"
         d="m 9,3 v 4 h 4 C 13,4.784 11.216,3 9,3 Z"
         style="opacity:1;fill:#1e2127;fill-opacity:1;fill-rule:evenodd;stroke:none"
         inkscape:connector-curvature="0" />
    </g>
    <g
       style="fill:#1e2127;fill-opacity:1"
       id="background-horizontal-bottomleft"
       transform="matrix(-0.75,0,0,0.75,43.75,40.25)">
      <rect
         id="rect3910"
         width="4"
         height="4"
         x="33"
         y="53"
         transform="matrix(-1.3333333,0,0,1.3333333,58.333333,-53.666667)"
         style="opacity:0;fill:#1e2127;fill-opacity:1;stroke:none" />
      <path
         id="path3901-7-8"
         d="m 9,21 v -4 h 4 c 0,2.216 -1.784,4 -4,4 z"
         style="opacity:1;fill:#1e2127;fill-opacity:1;fill-rule:evenodd;stroke:none"
         inkscape:connector-curvature="0" />
    </g>
    <g
       style="fill:#1e2127;fill-opacity:1"
       id="background-top-7"
       transform="matrix(0,-0.75,-0.1,0,39.7,47.75)">
      <rect
         id="rect3898"
         width="1"
         height="4"
         x="38"
         y="37"
         transform="matrix(0,-10,-1.3333333,0,63.666667,397)"
         style="opacity:0;fill:#1e2127;fill-opacity:1;stroke:none" />
      <path
         id="path3909-8-0"
         d="m 9,7 v 10 h 4 V 7 Z"
         style="opacity:1;fill:#1e2127;fill-opacity:1;fill-rule:evenodd;stroke:none"
         inkscape:connector-curvature="0" />
    </g>
    <g
       style="fill:#1e2127;fill-opacity:1"
       id="background-horizontal-bottom"
       transform="matrix(0,0.75,-0.1,0,39.7,46.25)">
      <rect
         id="rect3912"
         width="1"
         height="4"
         x="38"
         y="53"
         transform="matrix(0,-10,1.3333333,0,-61.666667,397)"
         style="opacity:0;fill:#1e2127;fill-opacity:1;stroke:none" />
      <path
         id="path3915-5-7"
         d="m 9,7 v 10 h 4 V 7 Z"
         style="opacity:1;fill:#1e2127;fill-opacity:1;fill-rule:evenodd;stroke:none"
         inkscape:connector-curvature="0" />
    </g>
  </g>
</svg>
