<svg xmlns="http://www.w3.org/2000/svg" width="32" height="32" viewBox="0 0 8.467 8.467"><path fill="#fff" d="M4.227.723a.547.547 0 0 0-.38.16L.696 4.037a.547.547 0 1 0 .772.772l2.767-2.766L7 4.809a.547.547 0 1 0 .771-.774L4.621.883a.547.547 0 0 0-.394-.16z" color="#000" font-family="sans-serif" font-weight="400" overflow="visible" style="line-height:normal;font-variant-ligatures:normal;font-variant-position:normal;font-variant-caps:normal;font-variant-numeric:normal;font-variant-alternates:normal;font-feature-settings:normal;text-indent:0;text-align:start;text-decoration-line:none;text-decoration-style:solid;text-decoration-color:#000;text-transform:none;text-orientation:mixed;shape-padding:0;isolation:auto;mix-blend-mode:normal" white-space="normal"/><path fill="#fff" d="M4.252 6.635l1.453.013a.383.383 0 0 0 .27-.119.507.507 0 0 0 .086-.227V3.533a.549.549 0 0 1 .554-.555v.315c.302.004.543.35.54.651v2.422a1.37 1.37 0 0 1-.947 1.27c-.16.063-.297.094-.297.094a.549.549 0 0 1-.122.012L4.252 7.73m0-1.095L2.8 6.648a.383.383 0 0 1-.272-.119.507.507 0 0 1-.084-.227V3.533a.549.549 0 0 0-.554-.555v.315c-.303.004-.544.35-.54.651v2.422c.013.582.394 1.09.947 1.27.16.063.296.094.296.094a.549.549 0 0 0 .122.012l1.537-.012" color="#000"/></svg>