<svg xmlns="http://www.w3.org/2000/svg" width="32" height="32" viewBox="0 0 8.467 8.467"><g fill="#fff" transform="matrix(1.16952 0 0 1.16952 -.718 -.718)"><path fill-rule="evenodd" d="M4.641 1.203a3.067 3.067 0 0 0-1.916.298 3.079 3.079 0 0 0-1.612 3.31 3.077 3.077 0 0 0 2.72 2.481 3.077 3.077 0 0 0 3.148-1.908.551.551 0 1 0-1.022-.413 1.968 1.968 0 0 1-2.02 1.224 1.967 1.967 0 0 1-1.744-1.592A1.967 1.967 0 0 1 3.23 2.481a1.965 1.965 0 0 1 2.327.393.552.552 0 1 0 .799-.762 3.072 3.072 0 0 0-1.715-.909z"/><circle cx="6.212" cy="2.59" r="1.196"/></g></svg>