<?xml version="1.0" encoding="UTF-8" standalone="no"?>
<svg
   xmlns:dc="http://purl.org/dc/elements/1.1/"
   xmlns:cc="http://creativecommons.org/ns#"
   xmlns:rdf="http://www.w3.org/1999/02/22-rdf-syntax-ns#"
   xmlns:svg="http://www.w3.org/2000/svg"
   xmlns="http://www.w3.org/2000/svg"
   xmlns:sodipodi="http://sodipodi.sourceforge.net/DTD/sodipodi-0.dtd"
   xmlns:inkscape="http://www.inkscape.org/namespaces/inkscape"
   version="1.0"
   width="1920pt"
   height="1080pt"
   viewBox="0 0 1920 1080"
   preserveAspectRatio="xMidYMid meet"
   id="svg6"
   sodipodi:docname="Waves-1.svg"
   inkscape:version="0.92.4 5da689c313, 2019-01-14"
   inkscape:export-filename="/home/gauge/Stuff/Wallpapers/Waves-1.png"
   inkscape:export-xdpi="96"
   inkscape:export-ydpi="96">
  <metadata
     id="metadata12">
    <rdf:RDF>
      <cc:Work
         rdf:about="">
        <dc:format>image/svg+xml</dc:format>
        <dc:type
           rdf:resource="http://purl.org/dc/dcmitype/StillImage" />
        <dc:title></dc:title>
      </cc:Work>
    </rdf:RDF>
  </metadata>
  <defs
     id="defs10" />
  <sodipodi:namedview
     pagecolor="#2f364a"
     bordercolor="#666666"
     borderopacity="1"
     objecttolerance="10"
     gridtolerance="10"
     guidetolerance="10"
     inkscape:pageopacity="1"
     inkscape:pageshadow="2"
     inkscape:window-width="1920"
     inkscape:window-height="1080"
     id="namedview8"
     showgrid="false"
     inkscape:zoom="4"
     inkscape:cx="1236.5967"
     inkscape:cy="666.96009"
     inkscape:window-x="1440"
     inkscape:window-y="0"
     inkscape:window-maximized="0"
     inkscape:current-layer="svg6" />
  <g
     id="g847"
     transform="matrix(0.6795859,0,0,0.67639946,353.06825,176.30876)"
     style="stroke-width:1.47494626">
    <path
       sodipodi:nodetypes="cccccccscccscccscccccccccccscccscccccccccccccccccscscccc"
       inkscape:connector-curvature="0"
       id="path840"
       d="m 836.29051,344.18699 -3.20069,2.6001 c -4.09999,3.5 -3.79941,6.7997 0.60059,7.1997 1.6,0.2 7.29991,-0.59883 12.39991,-1.79883 10.99999,-2.29999 20.40078,-2.80126 17.80077,-0.80126 -2.59999,2.1 -3.00048,5.30029 -1.00048,7.80029 1.69999,2 2.80039,2.30049 11.90039,2.50049 9.5,0.2 20.2998,2.6 20.2998,4.5 0,0.4 -0.69999,1.29951 -1.5,1.99951 -2.1,1.7 -1.8997,7.30068 0.3003,9.20068 0.9,0.9 3.59892,2.5002 5.89893,3.7002 3.79999,1.9 7.30077,5.39931 7.30077,7.29931 0,0.4 -1.4999,-0.19931 -3.3999,-1.29931 -2.6,-1.5 -3.90078,-1.70049 -5.80078,-1.00049 -5.6,2.1 -3.89951,6.9999 4.00049,12.3999 4.8,3.2 5.29922,4.70069 1.69922,4.70069 -4,0 -6.79922,3.59922 -6.19922,7.69921 1.4,8.4 7.69961,12.49981 24.09961,15.79981 6.3,1.2 13.00078,3.0997 14.80078,4.19971 6.2,3.5 12.69942,16.30077 8.39941,16.30077 -11.01849,2.35557 -12.74373,33.26244 -14.60009,26.20021 -5.27676,-22.33488 -25.01269,-22.62205 -37.89991,-8.5005 l -4.10009,4.8003 c 1.03429,-8.12076 -4.28021,-13.68653 -10.1001,-15.3003 -6.6,-1.69999 -12.7002,0.70079 -18.7002,7.30079 -7.1,7.69999 -8.6997,12.99902 -8.6997,27.99902 0.1,43.6 26.60009,87.60039 64.10009,106.40039 18.8,9.50001 36.89928,13.19971 62.79928,13.19971 39.20001,0 73.80061,-9.8005 104.10061,-29.50049 11.2,-7.30001 25.4997,-19.59902 32.6997,-27.99902 3.3,-3.9 6.4009,-7.50059 6.9009,-8.10059 0.5,-0.49999 0.8994,39.5003 0.8994,93.30029 v 94.19971 H 893.08983 664.0908 l 0.89941,-270 c 9.83367,-14.79047 33.10487,-56.7436 32.40088,-42.30029 -0.6,3.9 1.69962,6.80077 4.59961,5.80077 2.80001,-0.9 13.90001,-11.80077 15,-14.80077 0.5,-1.2 1.2,-4.89873 1.5,-8.19873 0.40001,-3.3 1.49942,-7.10049 2.39942,-8.50049 l 1.70068,-2.50049 0.30029,2.69971 c 0.3,2.8 1.29971,3.30078 5.69971,2.80078 2.9,-0.3 5.19951,-2.70049 9.49952,-10.00049 4.2,-7.2 9.10009,-12.40029 13.10009,-13.80029 2.2,-0.9 2.50049,-0.79991 2.50049,1.10009 -0.1,1.7 0.6001,2.30049 2.6001,2.50049 3.89999,0.5 12.39971,-5.50049 20.6997,-14.50049 7.4,-8 9.4002,-9.59922 12.7002,-10.69922 1.8,-0.6 1.99961,-0.30097 1.59961,2.49903 -0.6,3.8 1.59922,5.90039 6.19922,5.90039 3.5,0 12.10058,-3.8002 21.60059,-9.7002 3.6,-2.2 7.19951,-4.19961 7.9995,-4.59961 0.80001,-0.3 3.20127,-0.60058 5.30127,-0.60058 z"
       style="opacity:1;fill:#82a3e7;fill-opacity:1;fill-rule:evenodd;stroke:#ffffff;stroke-width:38.71733856;stroke-linecap:round;stroke-linejoin:round;stroke-miterlimit:4;stroke-dasharray:none;stroke-dashoffset:100;stroke-opacity:1;paint-order:stroke fill markers" />
    <g
       transform="translate(434.09032,223.18748)"
       style="fill:#99b7ed;fill-opacity:1;stroke:#82a3e7;stroke-width:2.21241927;stroke-miterlimit:4;stroke-dasharray:none;stroke-opacity:1"
       id="g846">
      <path
         inkscape:connector-curvature="0"
         d="m 472.27471,382.0751 c -0.475,0 -0.22412,0.375 0.52588,1.125 1.1,1.1 1.69981,6.79981 0.79981,6.79981 -0.3,0 -2.10049,-0.89913 -4.0005,-2.09913 -1.99999,-1.09999 -3.9996,-1.90068 -4.5996,-1.70068 -1.6,0.5 3.2998,9.7003 9.7998,18.30029 3.3,4.4 7.3,10.6003 9,13.80029 2.1,4.30001 3.10059,5.39971 3.60059,4.19971 1,-2.7 0.69922,-5.30029 -1.30079,-12.30029 -1.09999,-3.7 -2.19902,-8.2997 -2.49902,-10.19971 l -0.60058,-3.3999 2.6997,2.6001 c 1.6,1.4 5.79951,4.39912 9.49952,6.59912 6.19999,3.7 6.80077,3.90059 7.30078,2.10059 0.39999,-1.00001 0.3996,-2.30078 0.0996,-2.80079 -0.3,-0.39999 1.4002,-1.59902 3.7002,-2.49902 l 4.19971,-1.80029 -3.99902,-1.19971 c -5.80001,-1.8 -14.10001,-6.20059 -21,-11.10058 -3.3,-2.30001 -7.4999,-4.69981 -9.39991,-5.29981 -2.14999,-0.75 -3.35117,-1.125 -3.82617,-1.125 z m 207.22559,-26.87549 -4.00049,3.50098 c -7.9,6.8 -31.0999,21.4998 -43.8999,27.7998 -30.2,14.80001 -61.79981,21.49913 -89.29981,18.59912 -6.5,-0.6 -13.0001,-1.39882 -14.6001,-1.79883 -5.1,-0.99999 -1.5996,3.79971 7.4004,10.19971 4.59999,3.3 12.20028,9.59951 16.80029,13.99952 7.5,7.2 8.29922,7.70097 7.69922,5.00097 -0.4,-1.7 -1.4002,-3.90097 -2.2002,-5.00097 -0.8,-1.10001 -2.59941,-3.49942 -3.89941,-5.39942 -3.4,-4.6 -3.29971,-7.1001 0.30029,-7.1001 3.5,0 17.49893,7.89962 23.89893,13.59962 4.9,4.2 5.10117,4.30058 5.70117,2.10058 0.3,-1.2 0.59912,-3.4003 0.59912,-4.80029 0,-1.90001 0.59981,-2.80069 2.29981,-3.20069 2.1,-0.6 7.2999,0.3003 10.8999,1.8003 2.2,0.9 4.10068,-2.60001 3.20068,-6 -0.6,-2.30001 -0.30058,-2.49903 2.39942,-2.49903 1.6,0 4.10088,0.89952 5.40087,1.99951 5.8,4.5 10.8003,4.5004 10.8003,-0.0996 0,-1.99999 1.69902,-2.40029 12.99902,-3.30029 3.6,-0.3 13.90098,-2.60059 23.00098,-5.10058 9.1,-2.5 18.39931,-4.8002 20.79931,-5.2002 l 4.19971,-0.59912 v -5.29981 c 0,-3 -0.19951,-5.40087 -0.49951,-5.40087 -0.2,0 -5.9002,1.70088 -12.70019,3.90087 -6.80001,2.1 -17.7003,4.89961 -24.3003,6.09961 -6.6,1.2 -14.79922,2.79913 -18.19922,3.59912 -3.4,0.80001 -7.60029,1.4004 -9.30029,1.4004 -1.7,0 -2.90049,0.40088 -2.50049,0.90087 0.3,0.6 -1.40019,1.2 -3.70019,1.5 -15.4,1.90001 -40.09932,1.49903 -31.29932,-0.50097 1.7,-0.4 5,-0.69981 7.5,-0.7998 2.5,0 6.20019,-0.99912 8.20019,-2.09913 3.3,-1.8 3.89952,-1.80097 6.49952,-0.50097 4,2.1 6.30029,1.90048 6.30029,-0.49952 0,-2.2 0.40059,-2.29951 6.60059,-1.99951 3.7,0.1 4.19882,-0.20088 4.79882,-2.40087 1.4,-5.7 14.00049,-7.79961 19.00049,-3.09962 1.5,1.4 3.10059,2.50049 3.60059,2.50049 1.8,0 3.09931,-4.20029 2.79931,-9.30029 l -0.30029,-5.2002 8.00098,-0.60058 c 9.3,-0.7 11.49902,-1.39941 11.49902,-3.89942 0,-2.5 2.7,-5.10039 4.5,-4.40038 0.8,0.39999 1.5,1.60038 1.5,2.90038 0,1.30001 0.60039,2.49932 1.40039,2.79932 2,0.8 8.09951,-0.99971 9.49952,-2.6997 0.79999,-0.9 1.10087,-5.5004 0.90087,-13.4004 z M 379.58233,316.18643 c -3.68359,0.11328 -6.01905,3.48926 -8.08154,10.61425 -1.30001,4.5 -2.80088,6.79923 -6.90089,10.69923 -2.79999,2.7 -7.70029,8.40058 -10.80029,12.60058 -7.6,10.3 -10.89951,12.59922 -21.49951,15.19922 -6.5,1.6 -11.40029,3.70029 -18.30029,7.8003 -5.20001,3.09999 -12.89951,7.60048 -16.99952,10.00048 l -7.5,4.40039 -15.89941,-0.30029 c -14.8,-0.2 -16.60078,-9.7e-4 -25.30078,2.49902 l -9.30029,2.70117 v 21.19923 21.20067 l 2.80078,0.7002 c 1.59999,0.3 5.10029,2.89863 7.80029,5.59863 5.2,5.4 9.79942,8.40039 11.39941,7.4004 0.6,-0.3 1.0005,-3.49902 1.0005,-6.99903 0,-6.9 0.89989,-8.40039 3.3999,-5.90039 1.5,1.4 1.79892,2.3999 2.89892,7.8999 0.9,4.30001 3.7002,-5.2999 3.7002,-12.3999 0,-6.2 0.30019,-7.20019 2.20019,-8.20019 3.5,-1.90001 4.80029,1.09999 4.80029,10.5 0,12.3 -2,14.80048 -13.5,17.50048 -6.39999,1.5 -7.19961,2.39952 -4.5996,4.99952 1.09999,1.09999 2.9001,3.7996 4.1001,6.09961 1.09999,2.19999 2.59921,4.00048 3.19921,4.00048 2.3,0 15.70058,-9.20019 18.60059,-12.70019 l 2.89893,-3.70019 1.70067,3.20067 c 0.9,1.70001 1.59962,4.99893 1.59962,7.39893 l 0.10107,4.30078 1.39893,-2.69971 c 0.79999,-1.49999 1.80019,-4.99989 2.20019,-7.8999 l 0.79981,-5.20019 3,2.49902 c 1.69999,1.3 5.10068,3.60059 7.70068,5.10059 6,3.5 7.20029,5.70049 6.3003,11.50048 l -0.7002,4.5 2.79931,-2.20019 c 4.00001,-3.1 11.09961,-2.40068 13.59962,1.29932 1.99999,2.9 0.20009,11.70029 -3.39991,16.80029 -1,1.4 -1.79882,2.90069 -1.79882,3.20069 0,1.4 5.69931,0.3996 8.79931,-1.4004 4.9,-3 7.19971,-8.7998 7.19971,-18.7998 0,-6.8 0.30097,-8.4997 2.00098,-10.19971 3.69999,-3.69999 11.59941,-1.90088 15.8994,3.59913 3.20001,4.09999 3.59932,8.50058 1.29933,15.60058 -3.80001,11.7 -3.80001,12.39971 0,16.19971 l 3.40136,3.3999 29.79932,0.0996 c 19.8,0 29.50059,-0.29902 29.10059,-0.99902 -0.40001,-0.5 -5.89991,-4.50078 -12.39991,-8.80078 -13.8,-9.3 -25.60019,-18.69981 -29.20019,-23.29981 -4.4,-5.6 -7.8999,-13.09991 -7.8999,-16.8999 0,-2.80001 0.8998,-4.59951 3.7998,-7.99952 L 380.7,437.6 l 1.8999,3.90087 c 1.5,3.1 3.30039,4.59893 8.9004,7.39893 11.3,5.8 19.39951,11.90088 28.99951,21.90087 13.6,14.20001 21.20068,19.59884 36.20068,25.79884 l 8.2002,3.40137 h 107.49902 107.6001 v -10.0005 c 0,-11.7 0.40098,-11.3995 -11.49902,-7.9995 -21.4,6.2 -52.20029,8.5997 -51.3003,4.1997 0.4,-2.2 10.09932,-8.49991 32.79932,-21.39991 10.7,-6.09999 21.89981,-12.60087 24.79981,-14.40087 l 5.20019,-3.3999 v -6.49952 -6.49951 l -8.6997,6.59913 c -25.5,19.2 -53.59991,34.4997 -76.89991,41.69971 -9.3,2.89999 -38.4999,8.7998 -55.8999,11.2998 -16.4,2.3 -40.4003,2.3 -51.3003,0 -40.7,-8.6 -66.80019,-32.29961 -72.70019,-66.09961 -0.8,-4.8 -1.5,-9.4001 -1.5,-10.1001 0,-1.9 6.3999,-1.79932 19.8999,0.20068 20.8,3 40.5999,9.19903 55.8999,17.49902 8.50001,4.5 9.6001,4.70108 8.6001,1.60108 -1.1,-3.7 -3.1999,-5.39971 -12.3999,-10.19971 -8.7,-4.5 -12.99903,-8.70087 -12.99902,-12.90087 0,-2.80001 -5.40001,-7.70001 -15,-13.5 -9.5,-5.7 -11.90059,-8.09913 -8.10059,-8.09913 1.7,0 2.10059,-0.6 2.10059,-3 0,-2.1 -1.20108,-4.10039 -4.60108,-7.40039 -4,-4 -4.99942,-6.60058 -2.39941,-6.60058 0.39999,0 3.10038,1.80048 5.90039,4.00048 2.8,2.20001 5.19902,4.00049 5.49902,4.00049 0.2,0 1.00108,-1.60098 1.60108,-3.50097 1.6,-4.70001 -0.30118,-7.59981 -7.20118,-11.29981 -2.89999,-1.5 -7.8998,-5.19941 -11.2998,-8.39942 -4.1,-3.89999 -7.59981,-6.10077 -11.29981,-7.30077 -6.09999,-2.00001 -6.90019,-3.59952 -5.20019,-10.99952 1.9,-8.7 -0.39932,-11.30087 -11.79932,-12.90088 -5.7,-0.79999 -15.70078,-4.89921 -22.30078,-9.19921 -3.4125,-2.175 -6.10723,-3.28184 -8.31738,-3.21387 z m 9.91846,-183.98584 -8.50049,4.39892 c -8.90001,4.6 -19.60049,8.40088 -23.50049,8.40088 -1.30001,0 -2.99942,-0.7 -3.89942,-1.5 -0.8,-0.8 -2.0001,-1.5 -2.6001,-1.5 -1.7,0 -6.60048,3.6999 -14.50048,10.8999 -3.8,3.5 -8.39971,6.99991 -10.19971,7.89991 -3,1.4 -3.40059,1.40039 -5.10058,-0.0996 -1.00001,-0.9 -2.29932,-1.70069 -2.79933,-1.70069 -1.8,0 -8.09941,7.40078 -11.3994,13.30078 -3.40001,6 -4.9005,7.29923 -11.5005,9.19922 -3.6,1.10001 -4.10029,1.60089 -4.80029,5.40088 -1,5 -11.49922,19.39883 -16.69921,22.79883 -2.4,1.7 -4.70001,2.30127 -9,2.30127 -6.50001,0 -7.30001,0.7 -13.5,10.5 -2.1,3.3 -5.7006,8.29873 -8.1006,11.19873 l -4.40038,5.10059 v 33 c 0,31.4 0.0999,33.10019 1.8999,33.70019 2.2,0.70001 7.1001,-1.00048 7.1001,-2.50048 0,-0.6 -0.70001,-2.69961 -1.5,-4.59961 -0.8,-2 -1.19942,-4.09961 -0.89942,-4.59962 0.9,-1.39999 6.3001,-0.20009 8.6001,1.89991 1.7,1.5 1.8003,1.49951 1.8003,-1.00049 0,-1.7 -1.60001,-4.39922 -4.5,-7.69922 -4.8,-5.5 -5.8004,-9.50137 -2.9004,-12.40137 2.4,-2.5 9.99942,-7.49863 12.89942,-8.59863 2.4,-0.9 2.70019,-0.80127 2.20019,0.69873 -2.3,6.9 -2.89942,10.2001 -2.39941,11.6001 0.69999,1.9 10.49951,6.60039 15.49951,7.40039 3.2,0.6 4.10019,1.60078 2.20019,2.80078 -1.29999,0.8 -3.89951,9.69903 -4.9995,17.49903 -0.50001,3.6 -1.20108,8.00019 -1.60108,9.70019 -0.6,2.8 -0.39922,3.30029 1.30078,3.30029 2.7,0 10.29961,-4.99999 13.59961,-9 1.5,-1.8 3.29942,-5.19961 3.89942,-7.59961 0.69999,-2.4 1.50136,-4.40039 1.90136,-4.40039 0.3,0 1.79883,1.10049 3.29883,2.50049 3.5,3.20001 3.60107,8.60001 0.10108,12 l -2.40089,2.49903 h 2.80079 c 1.59999,0 3.99902,-1.09902 5.49902,-2.49903 2.2,-2 2.6001,-3.20097 2.6001,-8.00097 0,-3 0.2998,-5.49903 0.7998,-5.49903 0.4,0 2.20049,2.09883 4.00049,4.79883 2.9,4.3 3.20069,5.40098 3.20069,12.50097 v 7.69923 h 2.89892 c 2.6,0 3.00029,-0.39922 3.30029,-3.19923 0.2,-2.69999 0.80059,-3.30048 3.60059,-4.00048 4.29999,-1.1 7.99893,1.09981 8.89893,5.29981 1.09999,5.79999 2.30126,3.90019 2.30127,-3.79981 0,-9.7 0.59882,-10.70069 4.79882,-9.20069 4.1,1.40001 9.70039,-0.29872 11.90039,-3.69873 2.1,-3.19999 1.20078,-3.90087 -3.19921,-2.40087 -4.70001,1.5 -7.9003,0.70098 -9.3003,-2.49903 -1.7,-3.8 -1.50069,-5.10078 1.29932,-7.30078 3.4,-2.7 1.90078,-3.09942 -7.69922,-2.39942 l -7.70069,0.49952 -3.49951,-3.49952 c -4.1,-4.09999 -5.10019,-7.30058 -3.7002,-11.10058 2.20001,-5.7 5.99991,-4.39932 9.39991,3.20068 1.8,4.2 2.10029,4.3001 3.30029,2.6001 0.8,-1 1.4004,-3.10108 1.4004,-4.60108 0,-3.3 0.8995,-5.89892 1.9995,-5.89892 0.50001,0 1.89961,1.69873 3.09961,3.69873 l 2.29981,3.70019 0.90088,-3.4995 c 0.5,-1.90001 0.6999,-5.09971 0.3999,-7.19971 -0.3,-2 -0.20078,-3.7002 0.19922,-3.7002 1.2,0 3.8,3.29971 4.5,5.69971 0.6,1.8 1.20039,1.99961 4.40039,1.59961 5.4,-0.7 9.20068,2.50068 9.20069,7.70068 0,3.3 0.39931,4.1002 2.79931,5.2002 1.5,0.7 3.39971,2.69893 4.19971,4.39892 l 1.60107,3.10108 1.79883,-2.40088 c 1.7,-2.3 1.90019,-2.40019 3.70019,-0.7002 1.90001,1.7 2.00098,1.7001 3.50098,-0.3999 l 1.5,-2.29981 3.09961,2.6001 c 4.1,3.50001 4.89971,3.1003 2.69971,-1.1997 -2.4,-4.70001 -2.40039,-7.49981 0.0996,-9.79981 1.6,-1.4 2.40059,-1.50059 5.10059,-0.60059 4.99999,1.70001 10.30029,1.4002 12.30029,-0.7998 1.69999,-1.9 1.69892,-2.00019 -1.60108,-3.7002 -1.8,-0.9 -5.09893,-3.1995 -7.39892,-4.9995 -6,-5.00001 -12.70069,-7.60079 -18.20069,-7.30079 -3.69999,0.3 -4.79951,6.8e-4 -4.99951,-1.29931 -0.5,-2.5 2.59912,-7.80039 5.09912,-8.9004 2.3,-0.99999 -4.3998,-0.6998 -14.2998,0.7002 -7.1,1 -12.49903,-0.99932 -15.99902,-5.79932 -1.70001,-2.29999 -3.00001,-5.00107 -3,-6.10107 0,-1.8 0.49921,-1.89931 4.69921,-1.29931 2.6,0.3 5.70049,1.30058 7.00049,2.10058 2.9,2 3.0999,0.2999 0.3999,-4.1001 -2.4,-3.9 -9.40039,-7.40039 -14.90039,-7.40039 -10.9,0 -19.09922,-7.6 -24.19921,-22.5 -2.30001,-6.6 -2.6002,-12.0998 -0.7002,-12.7998 2.19999,-0.8 5.59961,1.09931 7.5996,4.29931 l 1.89991,3.09961 1.10009,-3.19921 c 0.6,-1.8 1.1001,-6.60069 1.1001,-10.70069 v -7.5 l 2.5005,2.30127 c 1.29999,1.3 2.6996,3.09971 3.0996,4.19971 0.3,1 0.89932,1.80029 1.29932,1.80029 1,0 3.00029,-7.1 3.30029,-12 0.2,-2.7 0.80049,-3.60127 2.50049,-3.80127 2.4,-0.4 7.6999,2.00098 10.8999,5.00098 l 2.09913,1.8999 0.60058,-5.29981 c 0.4,-2.89999 0.20078,-7.00107 -0.19922,-9.10107 -1.1,-4.5 0.39892,-4.89961 5.89893,-1.59961 7.6,4.6 12.80009,10.90078 14.60009,17.80078 l 1.19971,4.59961 0.7002,-4.8999 c 0.5,-3.3 0.20058,-7.59971 -0.89941,-13.19971 -0.9,-4.5 -1.59961,-8.70107 -1.59961,-9.10107 0,-0.5 3.79902,-0.89942 8.49902,-0.89942 l 8.50049,0.0996 v 6.20069 c 0,5.6 0.19951,6.30029 1.99951,6.30029 1.8,0 2.00097,-0.70049 2.00098,-7.00049 0,-3.9 0.3998,-7.00049 0.7998,-7.00049 2.7,0 18.79971,22.00039 20.69971,28.4004 0.69999,2.4 1.10019,4.6995 0.70019,4.9995 -0.3,0.40001 1.89991,0.40001 4.89991,0 3.9,-0.39999 5.89931,-0.19911 7.29931,0.90088 1.9,1.4 1.90078,1.49912 -0.19922,8.09912 -1.2,3.6 -2.20019,8.10049 -2.20019,10.0005 v 3.30029 l 7.1997,0.70019 c 9,0.8 13.80049,3.10001 16.00049,7.5 0.9,1.8 2.99961,4.09913 4.59961,5.09912 1.6,1 3.7999,2.90079 4.8999,4.30078 l 1.99952,2.6001 2.30127,-2.40088 c 5.59999,-6 20.0995,-7.20009 30.49951,-2.6001 5.79999,2.60001 6.49951,2.60069 6.49951,0.20069 0,-1 1.10048,-2.8997 2.50049,-4.19971 3.09999,-3 3.10029,-4.00058 0.30029,-6.60058 -3.6,-3.20001 -6.1001,-4.20069 -16.1001,-6.20069 -18.6,-3.7 -28.30019,-11.39922 -30.70019,-24.19921 -1.2,-6.3 -0.59981,-8.9004 2.20019,-8.9004 1.9,0 1.7998,-0.20019 -0.70019,-2.20019 -2.8,-2.2 -5.50049,-7.29961 -5.50049,-10.59961 0,-1.2 1.30019,-2.29961 3.70019,-3.09961 l 3.60059,-1.30078 -3.10107,-1.39893 c -2.7,-1.1 -3.19922,-1.90107 -3.19922,-4.60107 0,-7.6 -0.30059,-7.79883 -9.60059,-7.79883 -10.3,0 -12.59941,-0.90039 -15.89941,-5.90039 -1.5,-2.2 -3.3001,-4.2 -4.1001,-4.5 -0.8,-0.3 -5.59961,0.099 -10.59961,0.99902 -5.1,0.9 -10.70088,1.30088 -12.90088,0.90088 -2.3,-0.4 -4.60009,-1.6 -5.6001,-3 z"
         style="opacity:1;fill:#99b7ed;fill-opacity:1;fill-rule:evenodd;stroke:#82a3e7;stroke-width:2.21241927;stroke-linecap:round;stroke-linejoin:round;stroke-miterlimit:4;stroke-dasharray:none;stroke-dashoffset:100;stroke-opacity:1;paint-order:stroke fill markers"
         id="rect824" />
    </g>
  </g>
  <path
     style="fill:#82a3e7;fill-opacity:1;stroke:#82a3e7;stroke-width:0.1;stroke-opacity:0.94117647"
     inkscape:connector-curvature="0"
     id="path2"
     d="m 3058.0455,2952.3936 c -0.8,0.4 -4.4,2.4 -8,4.6 -9.5,5.9 -18.1,9.7 -21.6,9.7 -4.6,0 -6.8,-2.1 -6.2,-5.9 0.4,-2.8 0.2,-3.1 -1.6,-2.5 -3.3,1.1 -5.3,2.7 -12.7,10.7 -8.3,9 -16.8,15 -20.7,14.5 -2,-0.2 -2.7,-0.8 -2.6,-2.5 0,-1.9 -0.3,-2 -2.5,-1.1 -4,1.4 -8.9,6.6 -13.1,13.8 -4.3,7.3 -6.6,9.7 -9.5,10 -4.4,0.5 -5.4,0 -5.7,-2.8 l -0.3,-2.7 -1.7,2.5 c -0.9,1.4 -2,5.2 -2.4,8.5 -0.3,3.3 -1,7 -1.5,8.2 -1.1,3 -12.2,13.9 -15,14.8 -2.9,1 -5.2,-1.9 -4.6,-5.8 0.7,-5.5 -9.4,6.5 -16.7,19.6 -6.7,12 -14.1,22.7 -15.7,22.7 -0.5,0 -0.9,58 -0.9,135 v 135 h 229 229 v -94.2 c 0,-53.8 -0.4,-93.8 -0.9,-93.3 -0.5,0.6 -3.6,4.2 -6.9,8.1 -7.2,8.4 -21.5,20.7 -32.7,28 -30.3,19.7 -64.9,29.5 -104.1,29.5 -25.9,0 -44,-3.7 -62.8,-13.2 -37.5,-18.8 -64,-62.8 -64.1,-106.4 0,-15 1.6,-20.3 8.7,-28 6,-6.6 12.1,-9 18.7,-7.3 5.6,1.4 10.1,6.6 10.1,11.6 v 3.7 l 4.1,-4.8 c 4.6,-5.3 10.7,-9.2 15.9,-10.2 4.3,-0.8 13.6,2.4 16.8,5.8 2.8,3 5.2,8.9 5.2,12.9 0.1,5.6 2,0.8 3.5,-8.7 0.8,-4.7 1.9,-9.3 2.4,-10.4 1.4,-2.6 6.9,-7.1 8.7,-7.1 4.3,0 -2.2,-12.8 -8.4,-16.3 -1.8,-1.1 -8.5,-3 -14.8,-4.2 -16.4,-3.3 -22.7,-7.4 -24.1,-15.8 -0.6,-4.1 2.2,-7.7 6.2,-7.7 3.6,0 3.1,-1.5 -1.7,-4.7 -7.9,-5.4 -9.6,-10.3 -4,-12.4 1.9,-0.7 3.2,-0.5 5.8,1 1.9,1.1 3.4,1.7 3.4,1.3 0,-1.9 -3.5,-5.4 -7.3,-7.3 -2.3,-1.2 -5,-2.8 -5.9,-3.7 -2.2,-1.9 -2.4,-7.5 -0.3,-9.2 0.8,-0.7 1.5,-1.6 1.5,-2 0,-1.9 -10.8,-4.3 -20.3,-4.5 -9.1,-0.2 -10.2,-0.5 -11.9,-2.5 -2,-2.5 -1.6,-5.7 1,-7.8 2.6,-2 -6.8,-1.5 -17.8,0.8 -5.1,1.2 -10.8,2 -12.4,1.8 -4.4,-0.4 -4.7,-3.7 -0.6,-7.2 l 3.2,-2.6 -3.9,0.1 c -2.1,0 -4.5,0.3 -5.3,0.6 z m 3.9,15.8 c 2.2,0.4 7.8,0 12.9,-0.9 5,-0.9 9.8,-1.3 10.6,-1 0.8,0.3 2.6,2.3 4.1,4.5 3.3,5 5.6,5.9 15.9,5.9 9.3,0 9.6,0.2 9.6,7.8 0,2.7 0.5,3.5 3.2,4.6 l 3.1,1.4 -3.6,1.3 c -2.4,0.8 -3.7,1.9 -3.7,3.1 0,3.3 2.7,8.4 5.5,10.6 2.5,2 2.6,2.2 0.7,2.2 -2.8,0 -3.4,2.6 -2.2,8.9 2.4,12.8 12.1,20.5 30.7,24.2 10,2 12.5,3 16.1,6.2 2.8,2.6 2.8,3.6 -0.3,6.6 -1.4,1.3 -2.5,3.2 -2.5,4.2 0,2.4 -0.7,2.4 -6.5,-0.2 -10.4,-4.6 -24.9,-3.4 -30.5,2.6 l -2.3,2.4 -2,-2.6 c -1.1,-1.4 -3.3,-3.3 -4.9,-4.3 -1.6,-1 -3.7,-3.3 -4.6,-5.1 -2.2,-4.4 -7,-6.7 -16,-7.5 l -7.2,-0.7 v -3.3 c 0,-1.9 1,-6.4 2.2,-10 2.1,-6.6 2.1,-6.7 0.2,-8.1 -1.4,-1.1 -3.4,-1.3 -7.3,-0.9 -3,0.4 -5.2,0.4 -4.9,0 0.4,-0.3 0,-2.6 -0.7,-5 -1.9,-6.4 -18,-28.4 -20.7,-28.4 -0.4,0 -0.8,3.1 -0.8,7 0,6.3 -0.2,7 -2,7 -1.8,0 -2,-0.7 -2,-6.3 v -6.2 l -8.5,-0.1 c -4.7,0 -8.5,0.4 -8.5,0.9 0,0.4 0.7,4.6 1.6,9.1 1.1,5.6 1.4,9.9 0.9,13.2 l -0.7,4.9 -1.2,-4.6 c -1.8,-6.9 -7,-13.2 -14.6,-17.8 -5.5,-3.3 -7,-2.9 -5.9,1.6 0.4,2.1 0.6,6.2 0.2,9.1 l -0.6,5.3 -2.1,-1.9 c -3.2,-3 -8.5,-5.4 -10.9,-5 -1.7,0.2 -2.3,1.1 -2.5,3.8 -0.3,4.9 -2.3,12 -3.3,12 -0.4,0 -1,-0.8 -1.3,-1.8 -0.4,-1.1 -1.8,-2.9 -3.1,-4.2 l -2.5,-2.3 v 7.5 c 0,4.1 -0.5,8.9 -1.1,10.7 l -1.1,3.2 -1.9,-3.1 c -2,-3.2 -5.4,-5.1 -7.6,-4.3 -1.9,0.7 -1.6,6.2 0.7,12.8 5.1,14.9 13.3,22.5 24.2,22.5 5.5,0 12.5,3.5 14.9,7.4 2.7,4.4 2.5,6.1 -0.4,4.1 -1.3,-0.8 -4.4,-1.8 -7,-2.1 -4.2,-0.6 -4.7,-0.5 -4.7,1.3 0,1.1 1.3,3.8 3,6.1 3.5,4.8 8.9,6.8 16,5.8 9.9,-1.4 16.6,-1.7 14.3,-0.7 -2.5,1.1 -5.6,6.4 -5.1,8.9 0.2,1.3 1.3,1.6 5,1.3 5.5,-0.3 12.2,2.3 18.2,7.3 2.3,1.8 5.6,4.1 7.4,5 3.3,1.7 3.3,1.8 1.6,3.7 -2,2.2 -7.3,2.5 -12.3,0.8 -2.7,-0.9 -3.5,-0.8 -5.1,0.6 -2.5,2.3 -2.5,5.1 -0.1,9.8 2.2,4.3 1.4,4.7 -2.7,1.2 l -3.1,-2.6 -1.5,2.3 c -1.5,2.1 -1.6,2.1 -3.5,0.4 -1.8,-1.7 -2,-1.6 -3.7,0.7 l -1.8,2.4 -1.6,-3.1 c -0.8,-1.7 -2.7,-3.7 -4.2,-4.4 -2.4,-1.1 -2.8,-1.9 -2.8,-5.2 0,-5.2 -3.8,-8.4 -9.2,-7.7 -3.2,0.4 -3.8,0.2 -4.4,-1.6 -0.7,-2.4 -3.3,-5.7 -4.5,-5.7 -0.4,0 -0.5,1.7 -0.2,3.7 0.3,2.1 0.1,5.3 -0.4,7.2 l -0.9,3.5 -2.3,-3.7 c -1.2,-2 -2.6,-3.7 -3.1,-3.7 -1.1,0 -2,2.6 -2,5.9 0,1.5 -0.6,3.6 -1.4,4.6 -1.2,1.7 -1.5,1.6 -3.3,-2.6 -3.4,-7.6 -7.2,-8.9 -9.4,-3.2 -1.4,3.8 -0.4,7 3.7,11.1 l 3.5,3.5 7.7,-0.5 c 9.6,-0.7 11.1,-0.3 7.7,2.4 -2.8,2.2 -3,3.5 -1.3,7.3 1.4,3.2 4.6,4 9.3,2.5 4.4,-1.5 5.3,-0.8 3.2,2.4 -2.2,3.4 -7.8,5.1 -11.9,3.7 -4.2,-1.5 -4.8,-0.5 -4.8,9.2 0,7.7 -1.2,9.6 -2.3,3.8 -0.9,-4.2 -4.6,-6.4 -8.9,-5.3 -2.8,0.7 -3.4,1.3 -3.6,4 -0.3,2.8 -0.7,3.2 -3.3,3.2 h -2.9 v -7.7 c 0,-7.1 -0.3,-8.2 -3.2,-12.5 -1.8,-2.7 -3.6,-4.8 -4,-4.8 -0.5,0 -0.8,2.5 -0.8,5.5 0,4.8 -0.4,6 -2.6,8 -1.5,1.4 -3.9,2.5 -5.5,2.5 h -2.8 l 2.4,-2.5 c 3.5,-3.4 3.4,-8.8 -0.1,-12 -1.5,-1.4 -3,-2.5 -3.3,-2.5 -0.4,0 -1.2,2 -1.9,4.4 -0.6,2.4 -2.4,5.8 -3.9,7.6 -3.3,4 -10.9,9 -13.6,9 -1.7,0 -1.9,-0.5 -1.3,-3.3 0.4,-1.7 1.1,-6.1 1.6,-9.7 1.1,-7.8 3.7,-16.7 5,-17.5 1.9,-1.2 1,-2.2 -2.2,-2.8 -5,-0.8 -14.8,-5.5 -15.5,-7.4 -0.5,-1.4 0.1,-4.7 2.4,-11.6 0.5,-1.5 0.2,-1.6 -2.2,-0.7 -2.9,1.1 -10.5,6.1 -12.9,8.6 -2.9,2.9 -1.9,6.9 2.9,12.4 2.9,3.3 4.5,6 4.5,7.7 0,2.5 -0.1,2.5 -1.8,1 -2.3,-2.1 -7.7,-3.3 -8.6,-1.9 -0.3,0.5 0.1,2.6 0.9,4.6 0.8,1.9 1.5,4 1.5,4.6 0,1.5 -4.9,3.2 -7.1,2.5 -1.8,-0.6 -1.9,-2.3 -1.9,-33.7 v -33 l 4.4,-5.1 c 2.4,-2.9 6,-7.9 8.1,-11.2 6.2,-9.8 7,-10.5 13.5,-10.5 4.3,0 6.6,-0.6 9,-2.3 5.2,-3.4 15.7,-17.8 16.7,-22.8 0.7,-3.8 1.2,-4.3 4.8,-5.4 6.6,-1.9 8.1,-3.2 11.5,-9.2 3.3,-5.9 9.6,-13.3 11.4,-13.3 0.5,0 1.8,0.8 2.8,1.7 1.7,1.5 2.1,1.5 5.1,0.1 1.8,-0.9 6.4,-4.4 10.2,-7.9 7.9,-7.2 12.8,-10.9 14.5,-10.9 0.6,0 1.8,0.7 2.6,1.5 0.9,0.8 2.6,1.5 3.9,1.5 3.9,0 14.6,-3.8 23.5,-8.4 l 8.5,-4.4 1.8,2.3 c 1,1.4 3.3,2.6 5.6,3 z m -9,181.9 c 6.6,4.3 16.6,8.4 22.3,9.2 11.4,1.6 13.7,4.2 11.8,12.9 -1.7,7.4 -0.9,9 5.2,11 3.7,1.2 7.2,3.4 11.3,7.3 3.4,3.2 8.4,6.9 11.3,8.4 6.9,3.7 8.8,6.6 7.2,11.3 -0.6,1.9 -1.4,3.5 -1.6,3.5 -0.3,0 -2.7,-1.8 -5.5,-4 -2.8,-2.2 -5.5,-4 -5.9,-4 -2.6,0 -1.6,2.6 2.4,6.6 3.4,3.3 4.6,5.3 4.6,7.4 0,2.4 -0.4,3 -2.1,3 -3.8,0 -1.4,2.4 8.1,8.1 9.6,5.8 15,10.7 15,13.5 0,4.2 4.3,8.4 13,12.9 9.2,4.8 11.3,6.5 12.4,10.2 1,3.1 -0.1,2.9 -8.6,-1.6 -15.3,-8.3 -35.1,-14.5 -55.9,-17.5 -13.5,-2 -19.9,-2.1 -19.9,-0.2 0,0.7 0.7,5.3 1.5,10.1 5.9,33.8 32,57.5 72.7,66.1 10.9,2.3 34.9,2.3 51.3,0 17.4,-2.5 46.6,-8.4 55.9,-11.3 23.3,-7.2 51.4,-22.5 76.9,-41.7 l 8.7,-6.6 v 6.5 6.5 l -5.2,3.4 c -2.9,1.8 -14.1,8.3 -24.8,14.4 -22.7,12.9 -32.4,19.2 -32.8,21.4 -0.9,4.4 29.9,2 51.3,-4.2 11.9,-3.4 11.5,-3.7 11.5,8 v 10 h -107.6 -107.5 l -8.2,-3.4 c -15,-6.2 -22.6,-11.6 -36.2,-25.8 -9.6,-10 -17.7,-16.1 -29,-21.9 -5.6,-2.8 -7.4,-4.3 -8.9,-7.4 l -1.9,-3.9 -3.9,4.3 c -2.9,3.4 -3.8,5.2 -3.8,8 0,3.8 3.5,11.3 7.9,16.9 3.6,4.6 15.4,14 29.2,23.3 6.5,4.3 12,8.3 12.4,8.8 0.4,0.7 -9.3,1 -29.1,1 l -29.8,-0.1 -3.4,-3.4 c -3.8,-3.8 -3.8,-4.5 0,-16.2 2.3,-7.1 1.9,-11.5 -1.3,-15.6 -4.3,-5.5 -12.2,-7.3 -15.9,-3.6 -1.7,1.7 -2,3.4 -2,10.2 0,10 -2.3,15.8 -7.2,18.8 -3.1,1.8 -8.8,2.8 -8.8,1.4 0,-0.3 0.8,-1.8 1.8,-3.2 3.6,-5.1 5.4,-13.9 3.4,-16.8 -2.5,-3.7 -9.6,-4.4 -13.6,-1.3 l -2.8,2.2 0.7,-4.5 c 0.9,-5.8 -0.3,-8 -6.3,-11.5 -2.6,-1.5 -6,-3.8 -7.7,-5.1 l -3,-2.5 -0.8,5.2 c -0.4,2.9 -1.4,6.4 -2.2,7.9 l -1.4,2.7 -0.1,-4.3 c 0,-2.4 -0.7,-5.7 -1.6,-7.4 l -1.7,-3.2 -2.9,3.7 c -2.9,3.5 -16.3,12.7 -18.6,12.7 -0.6,0 -2.1,-1.8 -3.2,-4 -1.2,-2.3 -3,-5 -4.1,-6.1 -2.6,-2.6 -1.8,-3.5 4.6,-5 11.5,-2.7 13.5,-5.2 13.5,-17.5 0,-9.4 -1.3,-12.4 -4.8,-10.5 -1.9,1 -2.2,2 -2.2,8.2 0,7.1 -2.8,16.7 -3.7,12.4 -1.1,-5.5 -1.4,-6.5 -2.9,-7.9 -2.5,-2.5 -3.4,-1 -3.4,5.9 0,3.5 -0.4,6.7 -1,7 -1.6,1 -6.2,-2 -11.4,-7.4 -2.7,-2.7 -6.2,-5.3 -7.8,-5.6 l -2.8,-0.7 v -21.2 -21.2 l 9.3,-2.7 c 8.7,-2.5 10.5,-2.7 25.3,-2.5 l 15.9,0.3 7.5,-4.4 c 4.1,-2.4 11.8,-6.9 17,-10 6.9,-4.1 11.8,-6.2 18.3,-7.8 10.6,-2.6 13.9,-4.9 21.5,-15.2 3.1,-4.2 8,-9.9 10.8,-12.6 4.1,-3.9 5.6,-6.2 6.9,-10.7 3.3,-11.4 7.3,-13.2 16.4,-7.4 z m 291,61.2 c -1.4,1.7 -7.5,3.5 -9.5,2.7 -0.8,-0.3 -1.4,-1.5 -1.4,-2.8 0,-1.3 -0.7,-2.5 -1.5,-2.9 -1.8,-0.7 -4.5,1.9 -4.5,4.4 0,2.5 -2.2,3.2 -11.5,3.9 l -8,0.6 0.3,5.2 c 0.3,5.1 -1,9.3 -2.8,9.3 -0.5,0 -2.1,-1.1 -3.6,-2.5 -5,-4.7 -17.6,-2.6 -19,3.1 -0.6,2.2 -1.1,2.5 -4.8,2.4 -6.2,-0.3 -6.6,-0.2 -6.6,2 0,2.4 -2.3,2.6 -6.3,0.5 -2.6,-1.3 -3.2,-1.3 -6.5,0.5 -2,1.1 -5.7,2.1 -8.2,2.1 -2.5,0.1 -5.8,0.4 -7.5,0.8 -8.8,2 15.9,2.4 31.3,0.5 2.3,-0.3 4,-0.9 3.7,-1.5 -0.4,-0.5 0.8,-0.9 2.5,-0.9 1.7,0 5.9,-0.6 9.3,-1.4 3.4,-0.8 11.6,-2.4 18.2,-3.6 6.6,-1.2 17.5,-4 24.3,-6.1 6.8,-2.2 12.5,-3.9 12.7,-3.9 0.3,0 0.5,2.4 0.5,5.4 v 5.3 l -4.2,0.6 c -2.4,0.4 -11.7,2.7 -20.8,5.2 -9.1,2.5 -19.4,4.8 -23,5.1 -11.3,0.9 -13,1.3 -13,3.3 0,4.6 -5,4.6 -10.8,0.1 -1.3,-1.1 -3.8,-2 -5.4,-2 -2.7,0 -3,0.2 -2.4,2.5 0.9,3.4 -1,6.9 -3.2,6 -3.6,-1.5 -8.8,-2.4 -10.9,-1.8 -1.7,0.4 -2.3,1.3 -2.3,3.2 0,1.4 -0.3,3.6 -0.6,4.8 -0.6,2.2 -0.8,2.1 -5.7,-2.1 -6.4,-5.7 -20.4,-13.6 -23.9,-13.6 -3.6,0 -3.7,2.5 -0.3,7.1 1.3,1.9 3.1,4.3 3.9,5.4 0.8,1.1 1.8,3.3 2.2,5 0.6,2.7 -0.2,2.2 -7.7,-5 -4.6,-4.4 -12.2,-10.7 -16.8,-14 -9,-6.4 -12.5,-11.2 -7.4,-10.2 1.6,0.4 8.1,1.2 14.6,1.8 27.5,2.9 59.1,-3.8 89.3,-18.6 12.8,-6.3 36,-21 43.9,-27.8 l 4,-3.5 0.3,12 c 0.2,7.9 -0.1,12.5 -0.9,13.4 z m -202.8,2.6 c 1.9,0.6 6.1,3 9.4,5.3 6.9,4.9 15.2,9.3 21,11.1 l 4,1.2 -4.2,1.8 c -2.3,0.9 -4,2.1 -3.7,2.5 0.3,0.5 0.3,1.8 -0.1,2.8 -0.5,1.8 -1.1,1.6 -7.3,-2.1 -3.7,-2.2 -7.9,-5.2 -9.5,-6.6 l -2.7,-2.6 0.6,3.4 c 0.3,1.9 1.4,6.5 2.5,10.2 2,7 2.3,9.6 1.3,12.3 -0.5,1.2 -1.5,0.1 -3.6,-4.2 -1.7,-3.2 -5.7,-9.4 -9,-13.8 -6.5,-8.6 -11.4,-17.8 -9.8,-18.3 0.6,-0.2 2.6,0.6 4.6,1.7 1.9,1.2 3.7,2.1 4,2.1 0.9,0 0.3,-5.7 -0.8,-6.8 -1.5,-1.5 -1,-1.5 3.3,0 z" />
</svg>
