<?xml version="1.0" encoding="UTF-8" standalone="no"?>
<svg
   xmlns:dc="http://purl.org/dc/elements/1.1/"
   xmlns:cc="http://creativecommons.org/ns#"
   xmlns:rdf="http://www.w3.org/1999/02/22-rdf-syntax-ns#"
   xmlns:svg="http://www.w3.org/2000/svg"
   xmlns="http://www.w3.org/2000/svg"
   xmlns:sodipodi="http://sodipodi.sourceforge.net/DTD/sodipodi-0.dtd"
   xmlns:inkscape="http://www.inkscape.org/namespaces/inkscape"
   width="22"
   height="22"
   viewBox="0 0 22 22"
   version="1.1"
   id="svg12"
   sodipodi:docname="stick-inactive.svg"
   inkscape:version="0.92.2 2405546, 2018-03-11">
  <metadata
     id="metadata18">
    <rdf:RDF>
      <cc:Work
         rdf:about="">
        <dc:format>image/svg+xml</dc:format>
        <dc:type
           rdf:resource="http://purl.org/dc/dcmitype/StillImage" />
        <dc:title></dc:title>
      </cc:Work>
    </rdf:RDF>
  </metadata>
  <defs
     id="defs16" />
  <sodipodi:namedview
     pagecolor="#ffffff"
     bordercolor="#666666"
     borderopacity="1"
     objecttolerance="10"
     gridtolerance="10"
     guidetolerance="10"
     inkscape:pageopacity="0"
     inkscape:pageshadow="2"
     inkscape:window-width="1920"
     inkscape:window-height="1058"
     id="namedview14"
     showgrid="false"
     inkscape:zoom="166.8772"
     inkscape:cx="20.951489"
     inkscape:cy="21.557133"
     inkscape:window-x="1440"
     inkscape:window-y="0"
     inkscape:window-maximized="1"
     inkscape:current-layer="svg12" />
  <rect
     width="22.011808"
     height="22.011808"
     id="rect2"
     x="0"
     y="-0.011808606"
     style="fill:#181a21;stroke-width:0.68786901" />
  <rect
     width="22.011808"
     height="0.68786901"
     id="rect4"
     x="0"
     y="-0.011808606"
     style="fill:#f3d6fb;fill-opacity:0.1;stroke-width:0.68786901" />
  <g
     id="g10"
     transform="matrix(0.68786902,0,0,0.68786902,0,-0.01180844)"
     style="opacity:0.5;fill:#f3d6fb">
    <circle
       cx="16"
       cy="16"
       r="12"
       id="circle6"
       style="opacity:0" />
    <path
       d="m 16,10 a 6,6 0 0 0 -6,6 6,6 0 0 0 6,6 6,6 0 0 0 6,-6 6,6 0 0 0 -6,-6 z m 0,2 a 4,4 0 0 1 4,4 4,4 0 0 1 -4,4 4,4 0 0 1 -4,-4 4,4 0 0 1 4,-4 z"
       id="path8"
       inkscape:connector-curvature="0" />
  </g>
</svg>
